<svg width="20" height="13" viewBox="0 0 20 13" fill="none" xmlns="http://www.w3.org/2000/svg">
<path d="M10.8414 0.995813C10.4469 0.601379 10.1606 0.359214 9.98225 0.269315C9.79509 0.188259 9.64403 0.205204 9.52909 0.320148L0.862086 8.9835C0.667564 9.17802 0.706235 9.59689 0.978099 10.2401C1.24112 10.8922 1.65662 11.5022 2.22461 12.0702C2.72948 12.5751 3.18017 12.787 3.57668 12.7061C3.72032 12.6729 3.83635 12.6121 3.92477 12.5236L10.2177 6.23435C11.1094 7.2675 16.1745 12.4034 16.6636 12.8925C16.8293 13.0581 17.2083 12.8448 17.8007 12.2524C18.3843 11.6688 18.8528 11.1293 19.2062 10.6339C19.5596 10.1385 19.6772 9.83161 19.5588 9.71328L10.8414 0.995813Z" fill="white"/>
</svg>
