<?xml version="1.0" ?><svg fill="none" height="24" viewBox="0 0 24 24" width="24" xmlns="http://www.w3.org/2000/svg"><path clip-rule="evenodd" d="M5.61991 2.41472C5.96926 2.30564 6.33171 2.25 6.69661 2.25C8.45055 2.25 9.75001 3.79446 9.75 5.54107L9.75 9.45894C9.75001 11.2055 8.45055 12.75 6.69661 12.75C6.3317 12.75 5.96926 12.6944 5.61991 12.5853L5.35287 12.5019C5.26168 12.4734 5.17197 12.4418 5.08382 12.4073C6.47511 15.2328 8.76723 17.5249 11.5927 18.9162C11.5582 18.828 11.5266 18.7383 11.4981 18.6471L11.4147 18.3801C11.3056 18.0307 11.25 17.6683 11.25 17.3034C11.25 15.5494 12.7945 14.25 14.5411 14.25H18.4589C20.2055 14.25 21.75 15.5494 21.75 17.3034C21.75 17.6683 21.6944 18.0307 21.5853 18.3801L21.5019 18.6471C21.0162 20.2027 19.6268 21.3293 17.9648 21.6221C16.9972 21.7926 16.0028 21.7926 15.0352 21.6221C14.9971 21.6154 14.9591 21.6083 14.9214 21.6007C8.57975 20.3806 3.61938 15.4202 2.39931 9.07856C2.39173 9.0408 2.38459 9.00289 2.37788 8.96484C2.20737 7.99719 2.20737 7.00281 2.37788 6.03516C2.67074 4.37321 3.79728 2.98384 5.35286 2.49811C5.35286 2.49811 5.35287 2.49811 5.35287 2.49811L5.61991 2.41472L5.61991 2.41472ZM3.87147 8.7909C3.86574 8.76107 3.86011 8.73122 3.85456 8.70133C3.71496 7.9069 3.71515 7.08984 3.85512 6.29547C4.06162 5.12362 4.8376 4.23042 5.79995 3.92993L5.79996 3.92993L6.06699 3.84654C6.067 3.84654 6.067 3.84654 6.067 3.84654C6.2728 3.78228 6.48455 3.75 6.69661 3.75C7.48693 3.75 8.25001 4.48089 8.25 5.54106L8.25 9.45894C8.25 10.5191 7.48693 11.25 6.69661 11.25C6.48455 11.25 6.27279 11.2177 6.06699 11.1535L5.79995 11.0701C4.86138 10.777 4.10009 9.92017 3.87147 8.7909ZM15.2986 20.1454C16.0931 20.285 16.9101 20.2849 17.7045 20.1449C18.8764 19.9384 19.7696 19.1624 20.0701 18.2001L20.1535 17.933C20.2177 17.7272 20.25 17.5155 20.25 17.3034C20.25 16.5131 19.5191 15.75 18.4589 15.75H14.5411C13.4809 15.75 12.75 16.5131 12.75 17.3034C12.75 17.5155 12.7823 17.7272 12.8465 17.933L12.9299 18.2C13.223 19.1386 14.0799 19.8999 15.2092 20.1285C15.2389 20.1343 15.2688 20.1399 15.2986 20.1454Z" fill="white" fill-rule="evenodd"/></svg>