<?xml version="1.0" ?><svg fill="none" height="24" viewBox="0 0 24 24" width="24" xmlns="http://www.w3.org/2000/svg"><path clip-rule="evenodd" d="M13.0127 5.64724C10.8627 5.12149 8.59194 5.11582 6.44468 5.64091C5.0571 5.98023 3.98618 7.06957 3.67585 8.44882L3.6142 8.72278C3.1286 10.881 3.1286 13.119 3.6142 15.2772L3.67585 15.5512C3.98618 16.9304 5.0571 18.0198 6.44469 18.3591C8.59194 18.8842 10.8627 18.8785 13.0127 18.3528C14.3901 18.0159 15.4788 16.9476 15.8221 15.5942L15.8471 15.4957L15.8516 15.4968L15.8471 15.4957C15.8834 15.3523 15.9176 15.2084 15.9494 15.0642C16.3574 13.2156 16.3919 11.3067 16.0526 9.44791C15.9949 9.13174 15.9264 8.81703 15.8471 8.50432L15.8221 8.40576L16.4831 8.23807L15.8221 8.40576C15.4788 7.05243 14.3901 5.98408 13.0127 5.64724ZM17.6047 9.63583C17.8681 11.366 17.8407 13.129 17.5226 14.8523L19.0272 15.5996C19.8254 15.996 20.75 15.4154 20.75 14.5485L20.75 9.81013C20.75 8.89434 19.7282 8.31758 18.9286 8.81399L17.6047 9.63583ZM17.2842 8.06927L17.276 8.03694C16.7934 6.13443 15.274 4.65601 13.369 4.19018C10.9877 3.60785 8.47243 3.60085 6.08837 4.18385C4.15187 4.6574 2.64875 6.18038 2.21243 8.11954L2.15079 8.39351C1.6164 10.7685 1.6164 13.2315 2.15079 15.6065L2.21243 15.8805C2.64875 17.8196 4.15187 19.3426 6.08838 19.8162C8.47243 20.3992 10.9877 20.3922 13.369 19.8098C15.1433 19.3759 16.5832 18.0636 17.1623 16.3482L18.36 16.943C20.1405 17.8273 22.25 16.5453 22.25 14.5485L22.25 9.81013C22.25 7.70023 19.921 6.43238 18.1375 7.53959L17.2842 8.06927Z" fill="white" fill-rule="evenodd"/></svg>