<?xml version="1.0" ?><svg fill="none" height="24" viewBox="0 0 24 24" width="24" xmlns="http://www.w3.org/2000/svg"><path clip-rule="evenodd" d="M12 7.75C11.2925 7.75 10.7083 8.33005 10.7083 9.05882C10.7083 9.7876 11.2925 10.3676 12 10.3676C12.7075 10.3676 13.2917 9.7876 13.2917 9.05882C13.2917 8.33005 12.7075 7.75 12 7.75ZM9.20833 9.05882C9.20833 7.51348 10.4523 6.25 12 6.25C13.5477 6.25 14.7917 7.51348 14.7917 9.05882C14.7917 10.6042 13.5477 11.8676 12 11.8676C10.4523 11.8676 9.20833 10.6042 9.20833 9.05882ZM10.2908 14.5053C9.69583 14.6011 9.25 15.1211 9.25 15.7409V15.9586C9.25 16.1255 9.38247 16.25 9.53269 16.25H14.4673C14.6175 16.25 14.75 16.1255 14.75 15.9586V15.7409C14.75 15.1211 14.3042 14.6011 13.7092 14.5053C12.5769 14.3231 11.4231 14.3231 10.2908 14.5053ZM10.0525 13.0244C11.3427 12.8167 12.6573 12.8167 13.9475 13.0244C15.2786 13.2386 16.25 14.3938 16.25 15.7409V15.9586C16.25 16.942 15.4578 17.75 14.4673 17.75H9.53269C8.54223 17.75 7.75 16.942 7.75 15.9586V15.7409C7.75 14.3938 8.72142 13.2386 10.0525 13.0244Z" fill="white" fill-rule="evenodd"/><path clip-rule="evenodd" d="M2.25 7C2.25 4.37665 4.37665 2.25 7 2.25C7.41421 2.25 7.75 2.58579 7.75 3C7.75 3.41421 7.41421 3.75 7 3.75C5.20507 3.75 3.75 5.20507 3.75 7C3.75 7.41421 3.41421 7.75 3 7.75C2.58579 7.75 2.25 7.41421 2.25 7ZM15.25 3C15.25 2.58579 15.5858 2.25 16 2.25C19.0108 2.25 21.75 4.22912 21.75 7C21.75 7.41421 21.4142 7.75 21 7.75C20.5858 7.75 20.25 7.41421 20.25 7C20.25 5.3526 18.512 3.75 16 3.75C15.5858 3.75 15.25 3.41421 15.25 3ZM3 15.25C3.41421 15.25 3.75 15.5858 3.75 16C3.75 18.512 5.3526 20.25 7 20.25C7.41421 20.25 7.75 20.5858 7.75 21C7.75 21.4142 7.41421 21.75 7 21.75C4.22912 21.75 2.25 19.0108 2.25 16C2.25 15.5858 2.58579 15.25 3 15.25ZM21 15.25C21.4142 15.25 21.75 15.5858 21.75 16C21.75 19.1756 19.1756 21.75 16 21.75C15.5858 21.75 15.25 21.4142 15.25 21C15.25 20.5858 15.5858 20.25 16 20.25C18.3472 20.25 20.25 18.3472 20.25 16C20.25 15.5858 20.5858 15.25 21 15.25Z" fill="white" fill-rule="evenodd"/></svg>