<svg width="21" height="21" viewBox="0 0 21 21" fill="none" xmlns="http://www.w3.org/2000/svg">
<path d="M2.12121 13.0002C1.56339 13.0002 1.18966 13.0315 1 13.094C0.810343 13.169 0 11.3376 0 11.5002L0 20C0 20.2751 3.85294 15.4768 4.5 15.7394C5.14706 16.0145 2.69675 15.0002 3.5 15.0002C4.214 15.0002 3.27687 15.077 3.5 14.7394C3.57809 14.6143 5.5 15.7394 5.5 15.7394L7.5 15.2394C8.86107 15.3394 9.30831 15.2394 10 15.2394C10.2343 15.2394 11.5 16.0772 11.5 15.2394C11.5 14.4141 13.1004 15.3396 13 14.7394C12.8996 14.1392 8.99821 14.1456 8.83087 14.1456L2.12121 13.0002Z" fill="white"/>
<path d="M5.63375e-07 6.55573C7.55101e-07 4.36265 0.615119 2.71784 1.84534 1.6213C3.06074 0.53999 7.72991 8.34663e-07 10.057 1.0381e-06C12.3692 1.24024e-06 16.8874 0.210449 18.1324 1.29176C19.3775 2.3883 20 4.03311 20 6.22619L20 11.4461C20 11.8268 19.585 12.1695 18.755 12.4741C17.9101 12.7787 18.6116 13 17.5 13C16.6107 13 16.3528 12.7558 16.086 12.4055C15.8934 12.1314 15.797 11.8953 15.797 11.6974L15.797 8.05376C15.797 6.3328 15.7377 5.19057 15.6191 4.62707C15.4858 4.0788 10.472 4.15357 10.057 4.15357C9.64194 4.15357 4.48461 4.40073 4.38085 4.93377C4.26228 5.48204 4.203 9.3764 4.203 11.143L4.203 11.4463C4.203 11.827 3.78798 12.1697 2.95795 12.4743C2.1131 12.7789 3.14226 12.9312 2.04543 12.9312C1.11165 12.9312 0.518768 12.756 0.266794 12.4057C0.0889302 12.1316 -1.81079e-06 11.8955 -1.79348e-06 11.6975L5.63375e-07 6.55573Z" fill="white"/>
<path d="M20.0043 11.2044C20.0043 12.9758 19.3891 14.3043 18.1589 15.1899C16.9435 16.0633 12.2744 16.4994 9.94733 16.4994C7.63511 16.4994 3.1169 16.3295 1.87186 15.4561C0.626813 14.5704 0.00429191 13.2419 0.00429191 11.4706L0 11.1996C0 10.8921 0.415014 10.6153 1.24504 10.3693C2.08989 10.1233 1.88835 10 3 10C3.88932 10 3.64716 10.1417 3.91396 10.4247C4.10664 10.6461 4.20298 10.8367 4.20298 10.9966L4.20303 11.4446C4.20303 11.4446 4.26656 12.3071 4.38514 12.7622C4.51854 13.205 9.53232 13.1446 9.94733 13.1446C10.3623 13.1446 15.5197 12.945 15.6234 12.5145C15.742 12.0716 15.797 11.4444 15.797 11.4444L15.797 11.1995C15.797 10.8919 16.212 10.6152 17.042 10.3691C17.8869 10.1231 16.8577 10.0001 17.9546 10.0001C18.8883 10.0001 19.4812 10.1416 19.7332 10.4245C19.9111 10.6459 20 10.8366 20 10.9965L20.0043 11.2044Z" fill="white"/>
</svg>
