<svg width="25" height="9" viewBox="0 0 25 9" fill="none" xmlns="http://www.w3.org/2000/svg">
<path d="M-0.000181057 7.10148C-0.000180849 4.72575 0.824822 2.94395 2.47481 1.75609C4.10491 0.584722 7.67908 -2.39287e-06 10.8001 -2.12002e-06C13.9013 -1.84891e-06 19.9612 0.227975 21.631 1.39934C23.3009 2.58721 24.1358 4.369 24.1358 6.74473L24.1416 7.10817C24.1416 7.52062 23.585 7.89183 22.4717 8.22179C21.3386 8.55175 20.0266 8.71674 18.5356 8.71674C17.3429 8.71674 16.5676 8.52701 16.2097 8.14755C15.9513 7.85058 15.8221 7.59486 15.8221 7.38039L15.822 6.77952C15.822 6.77952 15.7368 5.62286 15.5778 5.01243C15.3989 4.41849 11.3568 4.49949 10.8001 4.49949C10.2435 4.49949 9.60126 4.28127 7.85704 5.01219C7.31695 5.23851 6.33206 5.52614 6.04098 6.03428C5.77972 6.49034 5.54043 7.73511 5.54043 8.14757C5.54043 8.56002 4.69977 8.7167 4.69977 8.7167C4.69977 8.7167 4.21996 8.7167 2.74889 8.7167C1.49649 8.7167 0.701307 8.52697 0.36336 8.14751C0.124806 7.85054 0.0055295 7.59482 0.00552952 7.38035L-0.000181057 7.10148Z" fill="white"/>
</svg>
