<svg width="21" height="20" viewBox="0 0 21 20" fill="none" xmlns="http://www.w3.org/2000/svg">
<path d="M13.0941 8.42371C14.0621 8.42371 14.8175 8.57037 15.3601 8.86371C15.9175 9.14237 16.1961 9.65571 16.1961 10.4037C16.1961 11.7237 15.1695 12.3837 13.1161 12.3837C11.0628 12.3837 10.0361 11.7237 10.0361 10.4037C10.0361 9.08371 11.0555 8.42371 13.0941 8.42371Z" fill="white"/>
<path d="M20.0039 15.4984C20.0039 17.2698 19.3888 17.7276 18.1586 18.6133C16.9432 19.4866 12.274 19.9228 9.94694 19.9228C7.63472 19.9228 3.11651 19.7528 1.87147 18.8794C0.626426 17.9938 0.00390422 16.6653 0.00390453 14.8939L0.00390604 5.49835C0.00390609 5.19083 0.418921 4.91406 1.24895 4.66804C2.0938 4.42202 3.07205 4.29901 4.18369 4.29901C5.07301 4.29901 5.65107 4.44047 5.91786 4.72339C6.11055 4.94481 6.20689 5.13548 6.20689 5.29539L6.20689 13.4178C6.20689 14.8078 6.26618 15.7304 6.38475 16.1855C6.51815 16.6284 9.53193 16.568 9.94694 16.568C10.362 16.568 13.3721 16.4984 13.623 15.9378C13.8168 15.5049 13.7892 15.2105 13.8009 14.7364C13.8033 14.6407 13.8009 14.4915 13.8009 14.4915C13.8009 14.1839 14.2159 13.9072 15.0459 13.6611C15.8908 13.4151 16.8616 13.2921 17.9585 13.2921C18.8922 13.2921 19.4851 13.4336 19.7371 13.7165C19.915 13.9379 20.0039 14.1286 20.0039 14.2885L20.0039 15.4984Z" fill="white"/>
<path d="M-8.61234e-06 5.295C-8.45748e-06 3.52366 0.61511 2.19517 1.84533 1.3095C3.06073 0.436133 7.72987 -1.34708e-05 10.0569 -1.32674e-05C12.3691 -1.30652e-05 16.8874 0.169965 18.1324 1.04333C19.3774 1.929 19.9996 12.6273 19.9996 14.3986L20.0039 14.6696C20.0039 14.9771 19.5889 15.2539 18.7589 15.4999C17.914 15.7459 16.9358 15.869 15.8241 15.869C14.9348 15.869 14.3567 15.7275 14.09 15.4446C13.8973 15.2232 13.8009 15.0325 13.8009 14.8726L13.8009 14.4246C13.8009 14.4246 13.7377 4.19236 13.6191 3.73723C13.4857 3.2944 10.4719 3.35479 10.0569 3.35479C9.6419 3.35479 6.48456 3.55441 6.38081 3.98495C6.26223 4.42778 6.20724 5.05505 6.20724 5.05505L6.20724 5.29995C6.20724 5.60748 5.79223 5.88425 4.9622 6.13027C4.11735 6.37628 3.14651 6.49929 2.04969 6.49929C1.1159 6.49929 0.523019 6.35783 0.271045 6.07491C0.0931806 5.85349 0.00424856 5.66283 0.00424857 5.50292L-8.61234e-06 5.295Z" fill="white"/>
</svg>
