<svg width="20" height="20" viewBox="0 0 20 20" fill="none" xmlns="http://www.w3.org/2000/svg">
<path d="M1.44964 20C0.875935 20 0.491554 19.9679 0.296495 19.9037C0.101436 19.8267 0.00390625 19.7048 0.00390625 19.5379V12.9371C0.00390625 12.6547 0.336654 12.3788 1.00215 12.1092C1.66765 11.8268 2.41346 11.6856 3.23959 11.6856C3.97393 11.6856 4.45584 11.8589 4.68533 12.2055C4.76564 12.3338 4.8058 12.4622 4.8058 12.5906V15.7448C6.20564 15.6421 7.26125 15.5908 7.97265 15.5908C8.2136 15.5908 8.33408 16.0208 8.33408 16.8808C8.33408 17.728 8.28245 18.4597 8.17918 19.0758C8.07591 19.692 7.93822 20 7.76611 20H1.44964Z" fill="white"/>
<path d="M1.44964 0.0453901C0.875935 0.0453901 0.491554 0.0774803 0.296495 0.141661C0.101436 0.218678 0.00390625 0.340622 0.00390625 0.507493V7.10827C0.00390625 7.39067 0.336654 7.66665 1.00215 7.93621C1.66765 8.2186 2.41346 8.3598 3.23959 8.3598C3.97393 8.3598 4.45584 8.18651 4.68533 7.83994C4.76564 7.71157 4.8058 7.58321 4.8058 7.45485V4.30059C6.20564 4.40328 7.26125 4.45462 7.97265 4.45462C8.2136 4.45462 8.33408 4.02461 8.33408 3.16459C8.33408 2.3174 8.28245 1.58573 8.17918 0.969596C8.07591 0.353458 7.93822 0.0453901 7.76611 0.0453901H1.44964Z" fill="white"/>
<path d="M18.5504 20C19.1241 20 19.5084 19.9679 19.7035 19.9037C19.8986 19.8267 19.9961 19.7048 19.9961 19.5379V12.9371C19.9961 12.6547 19.6633 12.3788 18.9978 12.1092C18.3324 11.8268 17.5865 11.6856 16.7604 11.6856C16.0261 11.6856 15.5442 11.8589 15.3147 12.2055C15.2344 12.3338 15.1942 12.4622 15.1942 12.5906V15.7448C13.7944 15.6421 12.7387 15.5908 12.0274 15.5908C11.7864 15.5908 11.6659 16.0208 11.6659 16.8808C11.6659 17.728 11.7176 18.4597 11.8208 19.0758C11.9241 19.692 12.0618 20 12.2339 20H18.5504Z" fill="white"/>
<path d="M18.5504 0.0453901C19.1241 0.0453901 19.5084 0.0774803 19.7035 0.141661C19.8986 0.218678 19.9961 0.340622 19.9961 0.507493V7.10827C19.9961 7.39067 19.6633 7.66665 18.9978 7.93621C18.3324 8.2186 17.5865 8.3598 16.7604 8.3598C16.0261 8.3598 15.5442 8.18651 15.3147 7.83994C15.2344 7.71157 15.1942 7.58321 15.1942 7.45485V4.30059C13.7944 4.40328 12.7387 4.45462 12.0274 4.45462C11.7864 4.45462 11.6659 4.02461 11.6659 3.16459C11.6659 2.3174 11.7176 1.58573 11.8208 0.969596C11.9241 0.353458 12.0618 0.0453901 12.2339 0.0453901H18.5504Z" fill="white"/>
</svg>
