<svg width="20" height="21" viewBox="0 0 20 21" fill="none" xmlns="http://www.w3.org/2000/svg">
<path d="M6.88673 11.6894C7.46065 11.6894 7.84517 11.7215 8.04031 11.7859C8.23544 11.8631 8.33301 11.9853 8.33301 12.1525L8.33301 18.7683C8.33301 19.0514 8.00013 19.328 7.33439 19.5981C6.66864 19.8812 5.92254 20.0227 5.09609 20.0227C4.36147 20.0227 3.87938 19.849 3.64981 19.5017C3.56946 19.373 3.52929 19.2443 3.52929 19.1157L3.52929 15.9543C2.12892 16.0572 1.07291 16.1086 0.361245 16.1086C0.120198 16.1086 -0.000324629 15.6777 -0.000324704 14.8157C-0.000324779 13.9666 0.0513281 13.2332 0.154634 12.6157C0.25794 11.9981 0.39568 11.6894 0.567857 11.6894L6.88673 11.6894Z" fill="white"/>
<path d="M6.88673 8.35604C7.46065 8.35604 7.84517 8.32387 8.04031 8.25955C8.23544 8.18235 8.33301 8.06013 8.33301 7.89288L8.33301 1.27708C8.33301 0.994043 8.00013 0.717437 7.33439 0.447264C6.66864 0.164225 5.92254 0.0227049 5.09609 0.0227048C4.36147 0.0227047 3.87938 0.196388 3.64981 0.543754C3.56946 0.672408 3.52929 0.801062 3.52929 0.929716L3.52929 4.09115C2.12892 3.98823 1.07291 3.93677 0.361245 3.93677C0.120198 3.93677 -0.000324629 4.36776 -0.000324704 5.22974C-0.000324779 6.07886 0.0513281 6.81219 0.154634 7.42973C0.25794 8.04727 0.39568 8.35604 0.567857 8.35604L6.88673 8.35604Z" fill="white"/>
<path d="M13.1133 11.6894C12.5394 11.6894 12.1548 11.7215 11.9597 11.7859C11.7646 11.8631 11.667 11.9853 11.667 12.1525L11.667 18.7683C11.667 19.0514 11.9999 19.328 12.6656 19.5981C13.3314 19.8812 14.0775 20.0227 14.9039 20.0227C15.6385 20.0227 16.1206 19.849 16.3502 19.5017C16.4305 19.373 16.4707 19.2443 16.4707 19.1157L16.4707 15.9543C17.8711 16.0572 18.9271 16.1086 19.6388 16.1086C19.8798 16.1086 20.0003 15.6777 20.0003 14.8157C20.0003 13.9666 19.9487 13.2332 19.8454 12.6157C19.7421 11.9981 19.6043 11.6894 19.4321 11.6894L13.1133 11.6894Z" fill="white"/>
<path d="M13.1133 8.35604C12.5394 8.35604 12.1548 8.32387 11.9597 8.25955C11.7646 8.18235 11.667 8.06013 11.667 7.89288L11.667 1.27708C11.667 0.994043 11.9999 0.717437 12.6656 0.447264C13.3314 0.164225 14.0775 0.0227051 14.9039 0.0227051C15.6385 0.0227051 16.1206 0.196388 16.3502 0.543754C16.4305 0.672408 16.4707 0.801062 16.4707 0.929716V4.09116C17.8711 3.98823 18.9271 3.93677 19.6388 3.93677C19.8798 3.93677 20.0003 4.36776 20.0003 5.22974C20.0003 6.07886 19.9487 6.81219 19.8454 7.42973C19.7421 8.04727 19.6043 8.35604 19.4321 8.35604L13.1133 8.35604Z" fill="white"/>
</svg>
