<svg width="28" height="22" viewBox="0 0 28 22" fill="none" xmlns="http://www.w3.org/2000/svg">
<path d="M8.90635 0C10.2354 0 11.2725 0.184384 12.0175 0.553153C12.7827 0.903483 13.1548 4.08828 13.1548 5.02864C13.1548 6.6881 11.7452 7.51783 8.92604 7.51783C6.10686 7.51783 4.69727 6.6881 4.69727 5.02864C4.69727 3.36918 6.1073 0 8.90635 0Z" fill="white"/>
<path d="M3.75793 15.2135C3.75793 13.5824 4.24089 12.359 5.2068 11.5435C6.16108 10.7392 7.27101 10.3371 9.0981 10.3371C10.9135 10.3371 11.8227 10.7407 12.8003 11.5449C13.7778 12.3605 14.2666 13.5839 14.2666 15.215C14.2666 15.215 14.2666 15.8875 14.095 16.4454C13.9234 17.0033 12.8672 18.5682 12.2155 18.7947C11.5522 19.0213 10.8306 19.3372 9.95778 19.3372C9.25953 19.3372 9.83363 21.18 9.62415 20.9195C9.47287 20.7156 9.39722 20.54 9.39722 20.3928L9.22474 19.3372L9.22386 18.9884C9.22386 18.9884 8.93338 18.9299 8.75487 18.8673C8.68154 18.8416 8.5695 18.795 8.5695 18.795L8.45662 18.7947L8.28413 18.795L8.12063 18.8939C8.12063 18.8939 7.1649 18.7638 6.30373 18.7638C5.57056 18.7638 4.80768 17.9699 4.60985 17.7094C4.4702 17.5055 3.93051 16.3903 3.93051 16.243C3.75798 15.9755 3.75798 15.5057 3.75793 15.2135Z" fill="white"/>
<path d="M0.000349368 14.2679C0.000349514 12.6033 2.13241 10.2293 3.28848 9.39701C4.43063 8.57628 7.26437 8.45728 9.45116 8.45728C12.2159 8.45728 13.8618 8.58949 15.0351 9.39701C16.2051 10.2293 18.794 12.4311 18.794 14.0956L18.7949 16.8427C18.7949 17.1316 18.4049 17.3917 17.6249 17.6229C16.831 17.8541 15.9117 17.9697 14.8671 17.9697C14.0313 17.9697 13.4881 17.8368 13.2374 17.5709C13.0563 17.3628 12.9658 17.1837 12.9658 17.0334L12.9658 14.2678C12.9658 12.9616 12.9101 12.0947 12.7987 11.667C12.6733 11.2508 9.84116 11.3076 9.45116 11.3076C9.06116 11.3076 6.09412 11.4952 5.99662 11.8997C5.88519 12.3159 5.82949 15.2717 5.82949 16.6127L5.82948 16.8428C5.82948 17.1318 5.43948 17.3919 4.65948 17.6231C3.86555 17.8543 2.95322 17.9698 1.9225 17.9698C1.045 17.9698 0.487852 17.8369 0.251064 17.571C0.0839215 17.363 0.000349114 17.1838 0.000349127 17.0335L0.000349368 14.2679Z" fill="white"/>
<path d="M18.7986 16.8047C18.7986 18.4693 18.2205 19.7177 17.0645 20.55C15.9223 21.3707 11.5346 21.7806 9.34779 21.7806C7.17493 21.7806 2.92904 21.6208 1.75904 20.8001C0.589034 19.9678 0.00403323 18.7194 0.00403323 17.0548L0 16.8002C0 16.5112 0.390001 16.2511 1.17 16.0199C1.96393 15.7887 2.88322 15.6731 3.92787 15.6731C4.76358 15.6731 5.3068 15.806 5.55751 16.0719C5.73858 16.28 5.82912 16.4592 5.82912 16.6094L5.82916 17.0304C5.82916 17.0304 5.88887 17.8409 6.0003 18.2686C6.12566 18.6847 8.95779 18.628 9.34779 18.628C9.73779 18.628 12.7048 18.4404 12.8023 18.0358C12.9138 17.6196 12.9654 17.0302 12.9654 17.0302L12.9654 16.8C12.9654 16.511 13.3554 16.251 14.1354 16.0198C14.9294 15.7886 15.8417 15.673 16.8724 15.673C17.7499 15.673 18.3071 15.8059 18.5439 16.0718C18.711 16.2798 18.7946 16.459 18.7946 16.6093L18.7986 16.8047Z" fill="white"/>
<path d="M21.1588 2C22.0779 2 22.7951 2.12751 23.3103 2.38253C23.8395 2.6248 24.0968 4.82721 24.0968 5.47751C24.0968 6.6251 23.122 7.19889 21.1724 7.19889C19.2228 7.19889 18.248 6.6251 18.248 5.47751C18.248 4.32993 19.2231 2 21.1588 2Z" fill="white"/>
<path d="M17.599 12.5209C17.599 11.3929 17.933 10.5469 18.601 9.98292C19.2609 9.42676 20.0285 9.14866 21.292 9.14866C22.5474 9.14866 23.1762 9.42777 23.8522 9.98394C24.5282 10.5479 24.8662 11.3939 24.8662 12.5219C24.8662 12.5219 24.8662 12.987 24.7475 13.3728C24.6289 13.7586 23.8985 14.8408 23.4478 14.9975C22.9891 15.1541 22.4901 15.3726 21.8865 15.3726C21.4036 15.3726 21.8006 16.647 21.6558 16.4668C21.5511 16.3258 21.4988 16.2044 21.4988 16.1026L21.3796 15.3726L21.3789 15.1314C21.3789 15.1314 21.1781 15.0909 21.0546 15.0476C21.0039 15.0299 20.9264 14.9976 20.9264 14.9976L20.8484 14.9975L20.7291 14.9976L20.616 15.066C20.616 15.066 19.9551 14.9761 19.3596 14.9761C18.8525 14.9761 18.325 14.4271 18.1882 14.2469C18.0916 14.1059 17.7184 13.3347 17.7184 13.2329C17.5991 13.0479 17.5991 12.7229 17.599 12.5209Z" fill="white"/>
<path d="M14.9998 11.8668C14.9998 10.7157 16.4743 9.07397 17.2737 8.49841C18.0636 7.93084 20.0232 7.84855 21.5355 7.84855C23.4474 7.84855 24.5856 7.93997 25.397 8.49841C26.2061 9.07397 27.9964 10.5966 27.9964 11.7477L27.9971 13.6474C27.9971 13.8472 27.7274 14.0271 27.188 14.187C26.6389 14.3468 26.0032 14.4268 25.2808 14.4268C24.7029 14.4268 24.3272 14.3349 24.1538 14.151C24.0286 14.0071 23.966 13.8832 23.966 13.7793L23.966 11.8668C23.966 10.9635 23.9275 10.3639 23.8504 10.0682C23.7637 9.78039 21.8052 9.81963 21.5355 9.81963C21.2658 9.81963 19.2139 9.94936 19.1465 10.2291C19.0695 10.5169 19.0309 12.561 19.0309 13.4883L19.0309 13.6475C19.0309 13.8473 18.7612 14.0272 18.2218 14.1871C17.6728 14.3469 17.0419 14.4269 16.3291 14.4269C15.7223 14.4269 15.337 14.3349 15.1732 14.1511C15.0576 14.0072 14.9998 13.8833 14.9998 13.7794L14.9998 11.8668Z" fill="white"/>
<path d="M28 13.6211C28 14.7722 27.6002 15.6356 26.8008 16.2111C26.0109 16.7787 22.9766 17.0621 21.4644 17.0621C19.9618 17.0621 17.0256 16.9517 16.2164 16.3841C15.4073 15.8086 15.0028 14.9452 15.0028 13.7941L15 13.618C15 13.4182 15.2697 13.2383 15.8091 13.0784C16.3581 12.9185 16.9939 12.8386 17.7163 12.8386C18.2942 12.8386 18.6699 12.9305 18.8432 13.1144C18.9685 13.2583 19.0311 13.3822 19.0311 13.4861L19.0311 13.7772C19.0311 13.7772 19.0724 14.3377 19.1495 14.6335C19.2361 14.9212 21.1947 14.882 21.4644 14.882C21.7341 14.882 23.7859 14.7523 23.8533 14.4725C23.9304 14.1847 23.9661 13.7771 23.9661 13.7771L23.9661 13.6179C23.9661 13.4181 24.2358 13.2382 24.7752 13.0783C25.3243 12.9184 25.9552 12.8385 26.668 12.8385C27.2748 12.8385 27.6601 12.9304 27.8238 13.1143C27.9394 13.2582 27.9972 13.3821 27.9972 13.486L28 13.6211Z" fill="white"/>
</svg>
