<svg width="21" height="24" viewBox="0 0 21 24" fill="none" xmlns="http://www.w3.org/2000/svg">
<path d="M3 5.18917C3 3.45342 3.51393 2.15162 4.5418 1.28375C5.55728 0.427931 8.05573 2.11962e-05 10 2.13662e-05C11.9319 2.15351e-05 13.8994 0.427931 14.9396 1.28375C15.9799 2.15162 16.5 3.45342 16.5 5.18917L16.501 10.5001C16.501 10.8015 16.1542 11.0727 15.4607 11.3138C14.7548 11.5548 13.9375 11.6754 13.0087 11.6754C12.2657 11.6754 11.7827 11.5368 11.5598 11.2595C11.3988 11.0426 11.3183 10.8557 11.3183 10.699L11.3173 6.63562C11.3173 5.27354 11.2678 4.36951 11.1687 3.92352C11.0573 3.48959 10.3468 3.50002 10 3.50002C9.65325 3.50002 8.41796 3.48356 8.33127 3.90544C8.2322 4.33938 8.18266 4.52453 8.18266 5.92277L8.18266 6.16275C8.18266 6.46409 7.83591 6.7353 7.14241 6.97638C6.43653 7.21745 5.62539 7.33799 4.70898 7.33799C3.92879 7.33799 3.43344 7.19937 3.22291 6.92213C3.0743 6.70517 3 6.51833 3 6.36163L3 5.18917Z" fill="white"/>
<path d="M4.5017e-07 14.2948C6.05025e-07 12.5235 0.615119 11.195 1.84534 10.3093C3.06074 9.43593 7.72991 8.99979 10.057 8.99979C12.3692 8.99979 16.8874 9.16976 18.1324 10.0431C19.3775 10.9288 20 12.2573 20 14.0286L20 18.2447C20 18.5522 19.585 18.829 18.755 19.075C17.9101 19.321 16.9319 19.444 15.8202 19.444C14.9309 19.444 14.3528 19.3026 14.086 19.0196C13.8934 18.7982 13.797 18.6076 13.797 18.4477L13.797 15.5047C13.797 14.1147 13.7377 13.1922 13.6191 12.737C13.4858 12.2942 10.472 12.3546 10.057 12.3546C9.64194 12.3546 6.48461 12.5542 6.38085 12.9848C6.26228 13.4276 6.203 16.573 6.203 17.9999L6.203 18.2448C6.203 18.5524 5.78798 18.8291 4.95795 19.0752C4.1131 19.3212 3.14226 19.4442 2.04543 19.4442C1.11165 19.4442 0.518768 19.3027 0.266794 19.0198C0.0889302 18.7984 -1.83423e-06 18.6077 -1.82025e-06 18.4478L4.5017e-07 14.2948Z" fill="white"/>
<path d="M20.0043 18.2042C20.0043 19.9756 19.3891 21.3041 18.1589 22.1897C16.9435 23.0631 12.2744 23.4992 9.94733 23.4992C7.63511 23.4992 3.1169 23.3293 1.87186 22.4559C0.626813 21.5702 0.00429191 20.2417 0.00429191 18.4704L0 18.1994C0 17.8919 0.415014 17.6151 1.24504 17.3691C2.08989 17.1231 3.06814 17.0001 4.17979 17.0001C5.06911 17.0001 5.64716 17.1415 5.91396 17.4245C6.10664 17.6459 6.20298 17.8366 6.20298 17.9965L6.20303 18.4445C6.20303 18.4445 6.26656 19.3069 6.38514 19.762C6.51854 20.2048 9.53232 20.1444 9.94733 20.1444C10.3623 20.1444 13.5197 19.9448 13.6234 19.5143C13.742 19.0715 13.797 18.4442 13.797 18.4442L13.797 18.1993C13.797 17.8918 14.212 17.615 15.042 17.369C15.8869 17.1229 16.8577 16.9999 17.9546 16.9999C18.8883 16.9999 19.4812 17.1414 19.7332 17.4243C19.9111 17.6457 20 17.8364 20 17.9963L20.0043 18.2042Z" fill="white"/>
</svg>
