<?xml version="1.0" encoding="UTF-8" ?>
<!DOCTYPE svg PUBLIC "-//W3C//DTD SVG 1.1//EN" "http://www.w3.org/Graphics/SVG/1.1/DTD/svg11.dtd">
<svg width="203pt" height="587pt" viewBox="0 0 203 587" version="1.1" xmlns="http://www.w3.org/2000/svg">
<path fill="#fa3e26" stroke="#fa3e26" stroke-width="0.09375" opacity="1.00" d=" M 70.76 43.77 C 79.18 38.89 89.36 37.35 98.92 38.99 C 108.46 41.11 115.18 49.77 117.04 59.07 C 117.52 61.99 117.88 64.93 118.41 67.85 C 118.13 68.42 117.56 69.58 117.28 70.16 C 116.25 70.43 115.22 70.71 114.20 71.02 C 113.64 69.15 113.12 67.27 112.61 65.39 C 110.43 64.78 108.24 64.18 106.06 63.57 C 103.57 65.90 101.28 68.47 99.60 71.46 C 97.80 71.28 95.99 71.09 94.19 70.91 C 93.82 74.36 93.51 77.83 93.39 81.30 C 93.45 78.30 93.37 75.30 93.13 72.30 C 89.60 70.40 86.48 67.80 82.84 66.09 C 79.66 65.05 76.23 65.80 72.97 66.06 C 73.05 68.66 73.22 71.25 73.61 73.82 C 71.01 74.63 68.41 75.43 65.77 76.09 C 63.52 76.57 61.17 76.49 59.07 75.50 C 58.75 72.32 58.33 69.14 58.28 65.95 C 58.40 57.04 62.55 47.93 70.76 43.77 Z" />
<path fill="#f9b1a1" stroke="#f9b1a1" stroke-width="0.09375" opacity="1.00" d=" M 117.04 59.07 C 117.78 61.21 118.50 63.39 119.66 65.34 C 121.56 67.77 124.93 68.89 126.10 71.91 C 128.49 77.65 129.15 84.07 128.17 90.19 C 127.45 95.13 124.21 99.21 123.29 104.10 C 122.53 103.42 121.76 102.76 120.96 102.14 C 123.95 98.75 126.17 94.65 126.32 90.03 C 126.87 84.61 126.32 79.14 125.21 73.84 C 124.64 70.30 121.58 68.64 118.41 67.85 C 117.88 64.93 117.52 61.99 117.04 59.07 Z" />
<path fill="#d53825" stroke="#d53825" stroke-width="0.09375" opacity="1.00" d=" M 39.30 66.34 C 42.25 64.56 45.49 62.92 49.00 62.78 C 52.28 63.17 55.29 64.63 58.28 65.95 C 58.33 69.14 58.75 72.32 59.07 75.50 C 56.86 74.56 54.53 73.98 52.15 73.75 C 51.44 76.94 51.18 80.20 50.76 83.43 C 50.71 83.75 50.62 84.38 50.57 84.69 C 48.65 85.26 46.73 85.81 44.79 86.29 C 41.14 86.88 37.26 88.18 33.75 86.31 C 36.62 83.47 40.21 81.24 42.12 77.56 C 36.69 76.81 31.09 79.77 25.87 77.47 C 29.64 72.99 34.38 69.47 39.30 66.34 Z" />
<path fill="#613b26" stroke="#613b26" stroke-width="0.09375" opacity="1.00" d=" M 99.60 71.46 C 101.28 68.47 103.57 65.90 106.06 63.57 C 108.24 64.18 110.43 64.78 112.61 65.39 C 113.12 67.27 113.64 69.15 114.20 71.02 L 113.68 71.37 C 112.61 73.55 111.86 75.87 111.29 78.23 C 111.05 79.10 110.82 79.97 110.59 80.85 C 111.49 81.75 112.38 82.67 113.27 83.60 C 112.94 84.50 112.61 85.40 112.27 86.31 C 111.72 86.50 110.62 86.88 110.07 87.07 C 109.32 86.00 108.58 84.93 107.85 83.85 C 105.95 83.82 104.06 83.79 102.17 83.75 C 100.86 79.76 100.31 75.58 99.60 71.46 Z" />
<path fill="#633b24" stroke="#633b24" stroke-width="0.09375" opacity="1.00" d=" M 72.97 66.06 C 76.23 65.80 79.66 65.05 82.84 66.09 C 86.48 67.80 89.60 70.40 93.13 72.30 C 93.37 75.30 93.45 78.30 93.39 81.30 C 91.27 81.66 89.16 82.05 87.04 82.35 C 85.38 81.34 83.69 80.39 82.02 79.42 C 81.51 79.81 80.50 80.61 79.99 81.01 C 80.96 83.57 83.50 86.68 80.93 89.12 C 78.38 88.98 78.11 85.93 77.79 83.97 C 77.45 81.65 79.07 79.73 80.10 77.82 C 77.98 76.42 75.82 75.07 73.61 73.82 C 73.22 71.25 73.05 68.66 72.97 66.06 Z" />
<path fill="#f1724c" stroke="#f1724c" stroke-width="0.09375" opacity="1.00" d=" M 118.41 67.85 C 121.58 68.64 124.64 70.30 125.21 73.84 C 124.09 73.28 122.99 72.72 121.88 72.16 C 120.95 74.14 119.67 76.06 119.44 78.28 C 119.63 81.31 121.33 83.99 121.71 86.98 C 120.86 90.05 119.49 92.96 118.84 96.09 C 122.54 96.02 124.73 92.98 126.32 90.03 C 126.17 94.65 123.95 98.75 120.96 102.14 C 119.51 101.20 118.01 100.38 116.50 99.56 C 116.17 98.49 115.79 97.44 115.45 96.37 C 115.28 89.23 116.42 82.14 116.47 75.01 C 116.77 73.15 114.85 72.34 113.68 71.37 L 114.20 71.02 C 115.22 70.71 116.25 70.43 117.28 70.16 C 117.56 69.58 118.13 68.42 118.41 67.85 Z" />
<path fill="#fa7146" stroke="#fa7146" stroke-width="0.09375" opacity="1.00" d=" M 94.19 70.91 C 95.99 71.09 97.80 71.28 99.60 71.46 C 100.31 75.58 100.86 79.76 102.17 83.75 C 104.06 83.79 105.95 83.82 107.85 83.85 C 108.58 84.93 109.32 86.00 110.07 87.07 C 109.65 87.23 108.80 87.55 108.38 87.71 C 108.81 89.50 109.33 91.26 109.99 92.98 C 109.02 95.48 108.34 98.15 108.90 100.84 C 109.88 106.79 109.97 112.83 109.67 118.84 C 109.01 115.36 109.08 111.68 107.56 108.41 C 106.86 108.73 105.46 109.36 104.76 109.68 C 103.81 114.67 103.09 119.70 102.72 124.77 C 103.90 125.42 105.08 126.07 106.27 126.72 C 105.13 130.08 101.33 132.85 97.78 131.45 C 94.77 130.01 92.64 127.30 90.66 124.71 C 90.06 123.40 89.56 122.04 89.14 120.67 C 87.88 112.91 86.96 105.08 86.44 97.24 C 86.40 92.27 86.49 87.30 87.04 82.35 C 89.16 82.05 91.27 81.66 93.39 81.30 C 93.51 77.83 93.82 74.36 94.19 70.91 M 103.16 95.15 C 103.21 96.98 103.27 98.82 103.32 100.65 C 104.21 101.06 105.10 101.47 105.98 101.88 C 106.57 99.62 107.08 97.24 106.06 95.02 C 105.33 95.06 103.89 95.12 103.16 95.15 Z" />
<path fill="#fbb481" stroke="#fbb481" stroke-width="0.09375" opacity="1.00" d=" M 111.29 78.23 C 111.86 75.87 112.61 73.55 113.68 71.37 C 114.85 72.34 116.77 73.15 116.47 75.01 C 116.42 82.14 115.28 89.23 115.45 96.37 C 112.83 96.92 111.25 94.98 109.99 92.98 C 109.33 91.26 108.81 89.50 108.38 87.71 C 108.80 87.55 109.65 87.23 110.07 87.07 C 110.62 86.88 111.72 86.50 112.27 86.31 C 112.61 85.40 112.94 84.50 113.27 83.60 C 113.61 82.63 113.96 81.67 114.33 80.72 C 113.32 79.89 112.30 79.05 111.29 78.23 Z" />
<path fill="#d24d34" stroke="#d24d34" stroke-width="0.09375" opacity="1.00" d=" M 121.88 72.16 C 122.99 72.72 124.09 73.28 125.21 73.84 C 126.32 79.14 126.87 84.61 126.32 90.03 C 124.73 92.98 122.54 96.02 118.84 96.09 C 119.49 92.96 120.86 90.05 121.71 86.98 C 121.33 83.99 119.63 81.31 119.44 78.28 C 119.67 76.06 120.95 74.14 121.88 72.16 Z" />
<path fill="#fa7044" stroke="#fa7044" stroke-width="0.09375" opacity="1.00" d=" M 52.15 73.75 C 54.53 73.98 56.86 74.56 59.07 75.50 C 61.17 76.49 63.52 76.57 65.77 76.09 C 66.89 80.92 68.23 85.70 69.15 90.58 C 68.55 91.87 67.95 93.16 67.43 94.48 C 65.13 94.11 62.83 93.74 60.52 93.37 C 60.03 88.87 60.39 83.51 56.12 80.68 C 55.32 82.22 54.52 83.77 53.74 85.32 C 52.75 84.68 51.75 84.05 50.76 83.43 C 51.18 80.20 51.44 76.94 52.15 73.75 Z" />
<path fill="#fcba80" stroke="#fcba80" stroke-width="0.09375" opacity="1.00" d=" M 65.77 76.09 C 68.41 75.43 71.01 74.63 73.61 73.82 C 75.82 75.07 77.98 76.42 80.10 77.82 C 79.07 79.73 77.45 81.65 77.79 83.97 C 78.11 85.93 78.38 88.98 80.93 89.12 C 83.50 86.68 80.96 83.57 79.99 81.01 C 80.50 80.61 81.51 79.81 82.02 79.42 C 83.69 80.39 85.38 81.34 87.04 82.35 C 86.49 87.30 86.40 92.27 86.44 97.24 C 85.62 96.57 84.80 95.90 83.98 95.24 C 82.15 98.59 80.83 102.36 78.10 105.11 C 75.00 107.11 72.06 104.38 70.34 101.93 C 70.22 98.12 69.84 94.32 69.15 90.58 C 68.23 85.70 66.89 80.92 65.77 76.09 Z" />
<path fill="#f9f8d5" stroke="#f9f8d5" stroke-width="0.09375" opacity="1.00" d=" M 110.59 80.85 C 110.82 79.97 111.05 79.10 111.29 78.23 C 112.30 79.05 113.32 79.89 114.33 80.72 C 113.96 81.67 113.61 82.63 113.27 83.60 C 112.38 82.67 111.49 81.75 110.59 80.85 Z" />
<path fill="#d44d32" stroke="#d44d32" stroke-width="0.09375" opacity="1.00" d=" M 53.74 85.32 C 54.52 83.77 55.32 82.22 56.12 80.68 C 60.39 83.51 60.03 88.87 60.52 93.37 C 62.83 93.74 65.13 94.11 67.43 94.48 C 66.50 96.74 67.02 100.29 64.19 101.18 C 61.65 102.31 59.16 100.19 57.92 98.14 C 55.59 94.23 54.85 89.66 53.74 85.32 Z" />
<path fill="#e57554" stroke="#e57554" stroke-width="0.09375" opacity="1.00" d=" M 50.57 84.69 C 50.62 84.38 50.71 83.75 50.76 83.43 C 51.75 84.05 52.75 84.68 53.74 85.32 C 54.85 89.66 55.59 94.23 57.92 98.14 C 59.16 100.19 61.65 102.31 64.19 101.18 C 67.02 100.29 66.50 96.74 67.43 94.48 C 67.95 93.16 68.55 91.87 69.15 90.58 C 69.84 94.32 70.22 98.12 70.34 101.93 C 69.40 102.46 68.46 102.98 67.56 103.56 C 65.71 105.10 63.94 106.77 62.48 108.69 C 60.66 106.11 58.22 104.11 55.93 101.98 C 53.73 96.35 52.88 90.29 50.57 84.69 Z" />
<path fill="#f6bdaa" stroke="#f6bdaa" stroke-width="0.09375" opacity="1.00" d=" M 44.79 86.29 C 46.73 85.81 48.65 85.26 50.57 84.69 C 52.88 90.29 53.73 96.35 55.93 101.98 C 52.11 98.45 52.52 92.83 50.68 88.32 C 49.93 85.83 46.73 86.79 44.79 86.29 Z" />
<path fill="#865e41" stroke="#865e41" stroke-width="0.09375" opacity="1.00" d=" M 108.90 100.84 C 108.34 98.15 109.02 95.48 109.99 92.98 C 111.25 94.98 112.83 96.92 115.45 96.37 C 115.79 97.44 116.17 98.49 116.50 99.56 C 116.05 105.93 115.62 112.47 117.37 118.70 C 119.14 123.23 124.58 125.32 125.76 130.21 C 127.44 136.24 126.12 142.50 124.21 148.30 C 123.36 150.33 123.73 152.47 124.58 154.43 C 120.15 153.85 118.86 159.86 114.76 160.46 C 112.53 160.74 110.30 160.27 108.11 159.90 C 107.76 159.85 107.06 159.74 106.70 159.69 C 103.95 159.03 101.14 159.54 98.59 160.68 C 91.75 163.59 84.23 164.80 76.82 164.26 C 73.70 163.54 72.18 160.43 70.27 158.18 C 70.45 153.56 71.00 148.97 71.50 144.38 C 72.23 137.43 74.68 130.40 72.61 123.44 C 70.68 116.87 70.91 109.66 67.56 103.56 C 68.46 102.98 69.40 102.46 70.34 101.93 C 72.06 104.38 75.00 107.11 78.10 105.11 C 80.83 102.36 82.15 98.59 83.98 95.24 C 84.80 95.90 85.62 96.57 86.44 97.24 C 86.96 105.08 87.88 112.91 89.14 120.67 C 85.54 122.90 82.31 125.87 80.87 129.97 C 84.29 128.52 87.49 126.63 90.66 124.71 C 92.64 127.30 94.77 130.01 97.78 131.45 C 101.33 132.85 105.13 130.08 106.27 126.72 C 106.40 126.00 106.67 124.56 106.81 123.84 C 109.96 124.12 113.12 124.34 116.28 124.14 C 114.30 122.11 112.07 120.35 109.67 118.84 C 109.97 112.83 109.88 106.79 108.90 100.84 M 100.92 137.09 C 101.47 140.41 102.68 143.60 103.03 146.96 C 103.19 150.65 102.97 154.35 103.18 158.04 C 104.99 157.83 107.12 157.95 108.24 156.22 C 113.11 150.88 111.21 142.74 107.62 137.24 C 105.39 137.07 103.15 137.03 100.92 137.09 Z" />
<path fill="#ffb38a" stroke="#ffb38a" stroke-width="0.09375" opacity="1.00" d=" M 103.16 95.15 C 103.89 95.12 105.33 95.06 106.06 95.02 C 107.08 97.24 106.57 99.62 105.98 101.88 C 105.10 101.47 104.21 101.06 103.32 100.65 C 103.27 98.82 103.21 96.98 103.16 95.15 Z" />
<path fill="#5d3e2b" stroke="#5d3e2b" stroke-width="0.09375" opacity="1.00" d=" M 117.37 118.70 C 115.62 112.47 116.05 105.93 116.50 99.56 C 118.01 100.38 119.51 101.20 120.96 102.14 C 121.76 102.76 122.53 103.42 123.29 104.10 C 124.25 105.00 125.19 105.93 126.13 106.87 C 125.22 107.95 124.32 109.03 123.41 110.11 C 126.21 113.14 129.31 115.90 131.87 119.14 C 132.86 120.17 132.45 121.64 132.45 122.91 C 132.08 127.60 133.07 132.22 133.89 136.81 C 132.73 137.18 131.56 137.54 130.40 137.90 C 131.99 141.23 133.54 144.65 133.89 148.37 C 132.17 148.78 130.45 149.20 128.74 149.60 C 128.64 151.26 128.54 152.93 128.43 154.59 C 127.47 154.55 125.54 154.47 124.58 154.43 C 123.73 152.47 123.36 150.33 124.21 148.30 C 126.12 142.50 127.44 136.24 125.76 130.21 C 124.58 125.32 119.14 123.23 117.37 118.70 Z" />
<path fill="#5b3e2a" stroke="#5b3e2a" stroke-width="0.09375" opacity="1.00" d=" M 62.48 108.69 C 63.94 106.77 65.71 105.10 67.56 103.56 C 70.91 109.66 70.68 116.87 72.61 123.44 C 74.68 130.40 72.23 137.43 71.50 144.38 C 71.00 148.97 70.45 153.56 70.27 158.18 C 68.96 158.24 67.64 158.30 66.33 158.36 C 65.75 156.68 65.19 154.99 64.63 153.31 C 62.67 153.91 60.69 154.49 58.70 154.99 C 59.79 150.97 60.65 146.90 61.55 142.85 C 60.03 142.65 58.52 142.45 57.01 142.24 C 57.79 140.36 58.62 138.49 59.33 136.58 C 60.19 134.77 58.38 133.03 58.69 131.22 C 59.33 129.33 60.36 127.60 61.30 125.85 C 60.68 124.58 60.07 123.31 59.45 122.03 C 60.97 119.50 62.45 116.94 63.95 114.39 C 62.95 113.43 61.95 112.47 60.95 111.52 C 61.44 110.56 61.95 109.62 62.48 108.69 Z" />
<path fill="#ffb89b" stroke="#ffb89b" stroke-width="0.09375" opacity="1.00" d=" M 104.76 109.68 C 105.46 109.36 106.86 108.73 107.56 108.41 C 107.71 113.56 107.79 118.75 106.81 123.84 C 106.67 124.56 106.40 126.00 106.27 126.72 C 105.08 126.07 103.90 125.42 102.72 124.77 C 103.09 119.70 103.81 114.67 104.76 109.68 Z" />
<path fill="#eda77a" stroke="#eda77a" stroke-width="0.09375" opacity="1.00" d=" M 107.56 108.41 C 109.08 111.68 109.01 115.36 109.67 118.84 C 112.07 120.35 114.30 122.11 116.28 124.14 C 113.12 124.34 109.96 124.12 106.81 123.84 C 107.79 118.75 107.71 113.56 107.56 108.41 Z" />
<path fill="#f0bb92" stroke="#f0bb92" stroke-width="0.09375" opacity="1.00" d=" M 80.87 129.97 C 82.31 125.87 85.54 122.90 89.14 120.67 C 89.56 122.04 90.06 123.40 90.66 124.71 C 87.49 126.63 84.29 128.52 80.87 129.97 Z" />
<path fill="#735237" stroke="#735237" stroke-width="0.09375" opacity="1.00" d=" M 100.92 137.09 C 103.15 137.03 105.39 137.07 107.62 137.24 C 111.21 142.74 113.11 150.88 108.24 156.22 C 107.12 157.95 104.99 157.83 103.18 158.04 C 102.97 154.35 103.19 150.65 103.03 146.96 C 102.68 143.60 101.47 140.41 100.92 137.09 Z" />
<path fill="#fabd84" stroke="#fabd84" stroke-width="0.09375" opacity="1.00" d=" M 98.59 160.68 C 101.14 159.54 103.95 159.03 106.70 159.69 C 105.20 159.75 103.70 159.89 102.20 160.03 C 102.12 166.66 103.81 173.14 103.89 179.76 C 102.89 181.50 101.92 183.26 100.86 184.97 C 100.22 185.84 99.58 186.71 98.93 187.59 C 95.05 185.00 91.82 181.53 87.81 179.14 C 87.07 174.49 87.31 169.78 87.73 165.12 C 87.11 165.06 85.87 164.94 85.26 164.89 C 82.45 164.64 79.62 164.56 76.82 164.26 C 84.23 164.80 91.75 163.59 98.59 160.68 Z" />
<path fill="#f6f8d7" stroke="#f6f8d7" stroke-width="0.09375" opacity="1.00" d=" M 102.20 160.03 C 103.70 159.89 105.20 159.75 106.70 159.69 C 107.06 159.74 107.76 159.85 108.11 159.90 C 104.40 163.08 104.71 168.04 105.51 172.39 C 109.47 174.42 113.39 176.53 117.15 178.94 C 113.07 181.24 108.29 180.03 103.89 179.76 C 103.81 173.14 102.12 166.66 102.20 160.03 Z" />
<path fill="#f8f4cb" stroke="#f8f4cb" stroke-width="0.09375" opacity="1.00" d=" M 85.26 164.89 C 85.87 164.94 87.11 165.06 87.73 165.12 C 87.31 169.78 87.07 174.49 87.81 179.14 C 84.62 178.78 81.41 178.85 78.21 178.71 L 77.97 177.78 C 83.59 176.43 87.39 170.49 85.26 164.89 Z" />
<path fill="#9bb699" stroke="#9bb699" stroke-width="0.09375" opacity="1.00" d=" M 119.48 177.63 C 119.91 178.06 120.34 178.49 120.77 178.93 C 119.69 179.49 118.61 180.06 117.51 180.59 C 111.81 181.10 104.58 179.33 100.86 184.97 C 101.92 183.26 102.89 181.50 103.89 179.76 C 108.29 180.03 113.07 181.24 117.15 178.94 C 117.93 178.51 118.71 178.07 119.48 177.63 Z" />
<path fill="#362e29" stroke="#362e29" stroke-width="0.09375" opacity="1.00" d=" M 69.40 184.40 C 71.93 181.82 74.30 178.74 77.97 177.78 L 78.21 178.71 C 79.49 184.06 80.28 189.54 81.75 194.86 C 82.22 196.48 82.96 198.01 83.64 199.56 C 92.82 199.23 102.00 199.40 111.18 199.23 C 102.04 199.97 92.85 199.19 83.70 199.85 C 84.11 204.33 84.73 208.79 85.77 213.16 C 86.06 214.67 86.36 216.18 86.64 217.69 C 87.43 222.26 88.49 226.77 89.38 231.32 C 90.07 235.31 90.55 239.33 90.99 243.36 C 91.43 246.54 92.00 249.70 92.12 252.92 C 90.41 261.50 91.11 270.23 90.58 278.90 C 87.99 278.84 85.41 278.34 83.37 276.65 C 79.56 273.67 74.82 272.55 70.18 271.63 C 70.56 265.34 71.19 259.06 71.07 252.74 C 71.28 249.87 71.44 247.00 71.52 244.12 C 71.68 240.63 74.20 238.23 76.65 236.08 C 76.72 234.00 76.78 231.92 76.59 229.84 C 75.85 224.82 74.80 219.80 72.95 215.06 C 72.31 213.25 71.61 211.47 70.89 209.69 C 69.31 206.25 67.66 202.83 66.05 199.40 C 65.01 197.02 63.57 194.70 63.39 192.06 C 64.83 189.11 67.20 186.77 69.40 184.40 Z" />
<path fill="#3e9780" stroke="#3e9780" stroke-width="0.09375" opacity="1.00" d=" M 78.21 178.71 C 81.41 178.85 84.62 178.78 87.81 179.14 C 91.82 181.53 95.05 185.00 98.93 187.59 C 99.58 186.71 100.22 185.84 100.86 184.97 C 104.58 179.33 111.81 181.10 117.51 180.59 C 117.48 184.80 117.49 189.02 117.25 193.23 C 105.49 194.06 93.79 192.58 82.05 192.30 C 81.97 192.94 81.82 194.22 81.75 194.86 C 80.28 189.54 79.49 184.06 78.21 178.71 Z" />
<path fill="#362f29" stroke="#362f29" stroke-width="0.09375" opacity="1.00" d=" M 117.51 180.59 C 118.61 180.06 119.69 179.49 120.77 178.93 C 124.20 182.61 127.78 186.24 130.49 190.49 C 131.75 192.25 130.53 194.32 130.15 196.16 C 128.50 200.93 127.15 205.80 126.04 210.72 C 125.91 211.46 125.64 212.95 125.51 213.69 C 124.28 220.03 123.44 227.15 126.98 232.94 C 128.15 235.08 129.52 237.24 129.56 239.77 C 130.53 250.53 132.20 261.23 132.75 272.02 C 133.12 274.17 131.49 275.68 130.10 277.03 C 129.67 277.14 128.80 277.37 128.37 277.48 C 126.33 277.40 124.29 277.26 122.26 277.13 C 123.07 275.79 123.88 274.45 124.69 273.12 C 122.67 272.80 120.64 272.50 118.61 272.20 C 117.43 265.44 118.09 258.54 117.29 251.74 C 117.10 248.90 116.96 246.05 116.90 243.20 C 116.86 239.40 116.85 235.61 116.78 231.81 C 116.67 227.29 116.60 222.76 116.58 218.23 C 116.56 215.38 116.54 212.53 116.48 209.69 C 116.42 206.17 116.37 202.65 116.61 199.15 C 116.79 197.17 117.09 195.21 117.25 193.23 C 117.49 189.02 117.48 184.80 117.51 180.59 Z" />
<path fill="#efface" stroke="#efface" stroke-width="0.09375" opacity="1.00" d=" M 82.05 192.30 C 93.79 192.58 105.49 194.06 117.25 193.23 C 117.09 195.21 116.79 197.17 116.61 199.15 C 114.80 199.16 112.99 199.18 111.18 199.23 C 102.00 199.40 92.82 199.23 83.64 199.56 C 82.96 198.01 82.22 196.48 81.75 194.86 C 81.82 194.22 81.97 192.94 82.05 192.30 Z" />
<path fill="#419781" stroke="#419781" stroke-width="0.09375" opacity="1.00" d=" M 126.04 210.72 C 127.15 205.80 128.50 200.93 130.15 196.16 C 130.29 196.62 130.57 197.54 130.71 198.00 C 136.58 197.98 139.45 203.48 142.81 207.36 C 142.72 207.91 142.54 209.01 142.45 209.56 C 136.97 209.75 131.38 209.19 126.04 210.72 Z" />
<path fill="#46947c" stroke="#46947c" stroke-width="0.09375" opacity="1.00" d=" M 66.05 199.40 C 67.66 202.83 69.31 206.25 70.89 209.69 C 66.24 208.38 61.38 208.81 56.65 208.10 C 55.30 207.91 54.66 206.55 53.86 205.63 C 56.83 201.73 61.47 200.35 66.05 199.40 Z" />
<path fill="#3c9882" stroke="#3c9882" stroke-width="0.09375" opacity="1.00" d=" M 111.18 199.23 C 112.99 199.18 114.80 199.16 116.61 199.15 C 116.37 202.65 116.42 206.17 116.48 209.69 C 106.21 210.06 95.93 209.29 85.66 209.69 C 85.69 210.56 85.74 212.29 85.77 213.16 C 84.73 208.79 84.11 204.33 83.70 199.85 C 92.85 199.19 102.04 199.97 111.18 199.23 Z" />
<path fill="#f7f8cc" stroke="#f7f8cc" stroke-width="0.09375" opacity="1.00" d=" M 43.88 218.23 C 46.97 213.85 50.01 209.40 53.86 205.63 C 54.66 206.55 55.30 207.91 56.65 208.10 C 61.38 208.81 66.24 208.38 70.89 209.69 C 71.61 211.47 72.31 213.25 72.95 215.06 C 72.95 215.84 72.95 217.40 72.96 218.18 C 63.27 218.53 53.56 218.49 43.88 218.23 Z" />
<path fill="#f5f8cb" stroke="#f5f8cb" stroke-width="0.09375" opacity="1.00" d=" M 142.81 207.36 C 145.58 210.94 147.84 214.88 150.68 218.41 C 142.30 218.45 133.91 218.64 125.54 218.32 C 125.50 216.78 125.49 215.23 125.51 213.69 C 125.64 212.95 125.91 211.46 126.04 210.72 C 131.38 209.19 136.97 209.75 142.45 209.56 C 142.54 209.01 142.72 207.91 142.81 207.36 Z" />
<path fill="#f7f8ca" stroke="#f7f8ca" stroke-width="0.09375" opacity="1.00" d=" M 85.66 209.69 C 95.93 209.29 106.21 210.06 116.48 209.69 C 116.54 212.53 116.56 215.38 116.58 218.23 C 106.62 218.41 96.52 219.20 86.64 217.69 C 86.36 216.18 86.06 214.67 85.77 213.16 C 85.74 212.29 85.69 210.56 85.66 209.69 Z" />
<path fill="#3a9780" stroke="#3a9780" stroke-width="0.09375" opacity="1.00" d=" M 126.98 232.94 C 123.44 227.15 124.28 220.03 125.51 213.69 C 125.49 215.23 125.50 216.78 125.54 218.32 C 133.91 218.64 142.30 218.45 150.68 218.41 C 151.62 219.62 152.57 220.82 153.48 222.06 C 152.92 225.12 151.45 228.91 147.99 229.47 C 142.46 230.32 136.85 232.33 131.25 230.81 C 130.32 230.35 129.41 229.85 128.49 229.37 C 127.99 230.56 127.48 231.75 126.98 232.94 Z" />
<path fill="#3c9781" stroke="#3c9781" stroke-width="0.09375" opacity="1.00" d=" M 72.95 215.06 C 74.80 219.80 75.85 224.82 76.59 229.84 C 73.02 230.10 69.45 230.34 65.87 230.15 C 58.25 229.31 50.62 228.47 43.00 227.55 C 41.04 227.41 39.29 226.49 37.65 225.50 C 39.64 223.00 41.84 220.69 43.88 218.23 C 53.56 218.49 63.27 218.53 72.96 218.18 C 72.95 217.40 72.95 215.84 72.95 215.06 Z" />
<path fill="#3b9782" stroke="#3b9782" stroke-width="0.09375" opacity="1.00" d=" M 86.64 217.69 C 96.52 219.20 106.62 218.41 116.58 218.23 C 116.60 222.76 116.67 227.29 116.78 231.81 L 116.09 231.75 C 107.20 231.05 98.28 231.61 89.38 231.32 C 88.49 226.77 87.43 222.26 86.64 217.69 Z" />
<path fill="#9fb78b" stroke="#9fb78b" stroke-width="0.09375" opacity="1.00" d=" M 153.48 222.06 C 153.96 223.33 154.37 224.62 154.82 225.91 C 153.28 227.58 151.87 229.42 149.99 230.72 C 147.89 231.83 145.43 231.88 143.12 232.17 C 139.33 232.53 135.53 232.76 131.74 233.16 C 131.62 232.57 131.37 231.40 131.25 230.81 C 136.85 232.33 142.46 230.32 147.99 229.47 C 151.45 228.91 152.92 225.12 153.48 222.06 Z" />
<path fill="#faf6c9" stroke="#faf6c9" stroke-width="0.09375" opacity="1.00" d=" M 30.14 240.13 C 33.81 235.90 34.76 230.19 37.65 225.50 C 39.29 226.49 41.04 227.41 43.00 227.55 C 50.62 228.47 58.25 229.31 65.87 230.15 C 69.18 230.48 72.47 230.97 75.75 231.47 C 76.04 233.01 76.34 234.54 76.65 236.08 C 74.20 238.23 71.68 240.63 71.52 244.12 C 71.29 242.66 71.03 241.20 70.75 239.75 C 67.43 240.51 65.69 243.55 63.75 246.03 C 58.94 244.08 53.86 243.00 48.85 241.70 C 46.35 244.93 43.75 248.07 41.03 251.12 C 45.04 245.35 44.27 238.19 45.53 231.63 C 42.95 231.38 39.96 230.88 37.86 232.82 C 34.64 235.73 32.64 239.66 30.08 243.11 C 23.29 252.48 17.94 262.80 11.17 272.19 C 12.66 268.81 13.74 265.28 14.99 261.81 C 21.50 255.64 24.28 246.81 30.14 240.13 Z" />
<path fill="#fbbc81" stroke="#fbbc81" stroke-width="0.09375" opacity="1.00" d=" M 149.99 230.72 C 151.87 229.42 153.28 227.58 154.82 225.91 C 156.51 231.21 159.84 235.73 162.66 240.47 C 171.79 256.07 181.32 271.63 187.24 288.81 C 188.39 292.66 189.69 297.42 186.88 300.88 C 182.48 306.19 176.53 309.87 171.13 314.05 C 161.72 317.48 152.71 322.43 145.91 329.91 C 145.98 333.20 145.98 336.58 144.59 339.64 C 143.20 342.52 143.40 345.78 144.04 348.84 C 143.27 345.82 142.31 342.86 141.37 339.90 C 137.91 341.11 135.12 343.68 131.60 344.76 C 131.78 342.17 132.09 339.60 132.45 337.04 C 130.45 338.10 128.43 339.13 126.40 340.16 C 125.35 338.22 124.09 336.42 122.88 334.58 C 121.08 334.80 119.29 335.02 117.50 335.25 C 117.56 333.24 117.94 331.23 118.93 329.46 C 119.90 327.66 120.95 325.90 121.97 324.12 C 119.50 324.36 117.02 324.60 114.54 324.79 C 114.67 323.15 114.85 321.52 115.00 319.88 C 115.69 319.24 116.37 318.57 117.03 317.89 C 118.13 316.77 119.25 315.68 120.39 314.60 C 123.24 312.93 125.57 310.59 127.42 307.87 C 130.20 304.58 134.37 302.89 138.63 303.85 C 139.01 307.03 139.88 310.12 141.18 313.03 C 148.11 309.55 154.30 304.65 159.85 299.25 C 159.40 299.14 158.51 298.92 158.07 298.81 C 161.26 296.78 163.80 293.96 166.15 291.03 C 166.38 291.58 166.85 292.69 167.09 293.25 C 169.77 291.22 174.63 288.76 173.01 284.67 C 169.72 276.16 164.14 268.83 160.17 260.67 C 156.26 252.76 151.18 245.50 147.26 237.59 C 146.18 235.57 144.71 233.80 143.12 232.17 C 145.43 231.88 147.89 231.83 149.99 230.72 Z" />
<path fill="#9cba9d" stroke="#9cba9d" stroke-width="0.09375" opacity="1.00" d=" M 65.87 230.15 C 69.45 230.34 73.02 230.10 76.59 229.84 C 76.78 231.92 76.72 234.00 76.65 236.08 C 76.34 234.54 76.04 233.01 75.75 231.47 C 72.47 230.97 69.18 230.48 65.87 230.15 Z" />
<path fill="#f9bc84" stroke="#f9bc84" stroke-width="0.09375" opacity="1.00" d=" M 37.86 232.82 C 39.96 230.88 42.95 231.38 45.53 231.63 C 44.27 238.19 45.04 245.35 41.03 251.12 C 36.69 257.67 32.02 264.09 28.90 271.35 C 27.88 271.83 26.85 272.30 25.83 272.78 C 22.10 274.49 18.19 276.27 15.59 279.58 C 12.03 283.79 11.35 289.45 9.92 294.57 C 7.65 292.17 3.78 289.55 4.85 285.74 C 6.08 280.87 8.74 276.53 11.17 272.19 C 17.94 262.80 23.29 252.48 30.08 243.11 C 32.64 239.66 34.64 235.73 37.86 232.82 Z" />
<path fill="#f8f5cb" stroke="#f8f5cb" stroke-width="0.09375" opacity="1.00" d=" M 89.38 231.32 C 98.28 231.61 107.20 231.05 116.09 231.75 C 116.25 235.15 116.25 238.55 116.08 241.95 C 110.66 242.66 105.21 243.22 99.77 243.84 C 96.83 244.24 93.84 244.24 90.99 243.36 C 90.55 239.33 90.07 235.31 89.38 231.32 Z" />
<path fill="#9eb99e" stroke="#9eb99e" stroke-width="0.09375" opacity="1.00" d=" M 116.09 231.75 L 116.78 231.81 C 116.85 235.61 116.86 239.40 116.90 243.20 C 111.21 243.87 105.48 243.67 99.77 243.84 C 105.21 243.22 110.66 242.66 116.08 241.95 C 116.25 238.55 116.25 235.15 116.09 231.75 Z" />
<path fill="#f9f8d5" stroke="#f9f8d5" stroke-width="0.09375" opacity="1.00" d=" M 131.74 233.16 C 135.53 232.76 139.33 232.53 143.12 232.17 C 144.71 233.80 146.18 235.57 147.26 237.59 C 145.84 237.32 144.18 235.79 142.83 236.94 C 140.43 239.35 138.65 242.31 136.14 244.63 C 133.63 241.27 132.47 237.23 131.74 233.16 Z" />
<path fill="#3d9781" stroke="#3d9781" stroke-width="0.09375" opacity="1.00" d=" M 90.99 243.36 C 93.84 244.24 96.83 244.24 99.77 243.84 C 105.48 243.67 111.21 243.87 116.90 243.20 C 116.96 246.05 117.10 248.90 117.29 251.74 C 109.16 252.20 101.06 253.23 92.91 253.34 L 92.12 252.92 C 92.00 249.70 91.43 246.54 90.99 243.36 Z" />
<path fill="#7db4a6" stroke="#7db4a6" stroke-width="0.09375" opacity="1.00" d=" M 92.91 253.34 C 101.06 253.23 109.16 252.20 117.29 251.74 L 117.27 252.81 C 109.47 253.56 101.62 253.58 93.80 254.24 C 93.53 257.30 93.50 260.37 93.68 263.44 C 101.50 262.69 109.33 262.25 117.19 262.09 L 117.18 263.06 C 111.41 263.06 105.64 263.36 99.94 264.20 C 99.81 267.13 99.84 270.06 100.00 272.99 C 105.82 273.70 111.71 273.31 117.39 271.87 C 117.85 273.60 118.42 275.30 119.05 276.99 C 118.60 275.97 118.14 274.95 117.67 273.94 C 109.71 273.46 101.74 273.81 93.77 273.84 C 93.77 266.99 92.36 260.20 92.91 253.34 Z" />
<path fill="#726a5f" stroke="#726a5f" stroke-width="0.09375" opacity="1.00" d=" M 117.29 251.74 C 118.09 258.54 117.43 265.44 118.61 272.20 C 120.64 272.50 122.67 272.80 124.69 273.12 C 123.88 274.45 123.07 275.79 122.26 277.13 C 124.29 277.26 126.33 277.40 128.37 277.48 C 125.56 278.27 122.66 278.60 119.75 278.67 C 119.57 278.25 119.22 277.41 119.05 276.99 C 118.42 275.30 117.85 273.60 117.39 271.87 C 117.17 268.93 117.18 265.99 117.18 263.06 L 117.19 262.09 C 117.21 259.00 117.23 255.90 117.27 252.81 L 117.29 251.74 Z" />
<path fill="#717064" stroke="#717064" stroke-width="0.09375" opacity="1.00" d=" M 69.62 273.52 C 68.91 266.58 69.83 259.57 71.07 252.74 C 71.19 259.06 70.56 265.34 70.18 271.63 C 74.82 272.55 79.56 273.67 83.37 276.65 C 85.41 278.34 87.99 278.84 90.58 278.90 C 91.11 270.23 90.41 261.50 92.12 252.92 L 92.91 253.34 C 92.36 260.20 93.77 266.99 93.77 273.84 C 93.70 275.49 93.58 277.13 93.48 278.78 C 88.80 280.34 83.87 279.48 79.16 278.55 C 75.92 277.08 72.02 276.32 69.62 273.52 Z" />
<path fill="#f5f6ca" stroke="#f5f6ca" stroke-width="0.09375" opacity="1.00" d=" M 93.80 254.24 C 101.62 253.58 109.47 253.56 117.27 252.81 C 117.23 255.90 117.21 259.00 117.19 262.09 C 109.33 262.25 101.50 262.69 93.68 263.44 C 93.50 260.37 93.53 257.30 93.80 254.24 Z" />
<path fill="#3a9782" stroke="#3a9782" stroke-width="0.09375" opacity="1.00" d=" M 99.94 264.20 C 105.64 263.36 111.41 263.06 117.18 263.06 C 117.18 265.99 117.17 268.93 117.39 271.87 C 111.71 273.31 105.82 273.70 100.00 272.99 C 99.84 270.06 99.81 267.13 99.94 264.20 Z" />
<path fill="#fbe9d1" stroke="#fbe9d1" stroke-width="0.09375" opacity="1.00" d=" M 25.83 272.78 C 26.85 272.30 27.88 271.83 28.90 271.35 C 27.70 273.87 25.94 276.13 25.13 278.82 C 27.43 281.91 30.55 284.37 32.30 287.89 C 30.18 286.55 28.05 285.22 26.02 283.76 C 24.79 282.54 23.64 281.23 22.49 279.94 C 23.54 277.52 24.65 275.13 25.83 272.78 Z" />
<path fill="#fdcfa6" stroke="#fdcfa6" stroke-width="0.09375" opacity="1.00" d=" M 15.59 279.58 C 18.19 276.27 22.10 274.49 25.83 272.78 C 24.65 275.13 23.54 277.52 22.49 279.94 C 23.64 281.23 24.79 282.54 26.02 283.76 C 24.55 283.59 22.62 283.15 21.74 284.75 C 18.35 289.85 20.21 299.17 27.01 300.22 C 30.79 300.84 35.78 300.64 37.91 296.89 C 39.29 294.99 37.53 292.99 36.62 291.33 C 38.55 289.65 39.95 287.50 40.99 285.17 C 39.30 290.48 41.88 295.61 45.36 299.50 C 42.02 304.97 36.08 307.65 30.50 310.23 C 27.22 307.96 24.23 305.31 21.09 302.86 C 17.44 300.00 13.42 297.62 9.92 294.57 C 11.35 289.45 12.03 283.79 15.59 279.58 Z" />
<path fill="#f2f6d6" stroke="#f2f6d6" stroke-width="0.09375" opacity="1.00" d=" M 93.77 273.84 C 101.74 273.81 109.71 273.46 117.67 273.94 C 118.14 274.95 118.60 275.97 119.05 276.99 C 119.22 277.41 119.57 278.25 119.75 278.67 C 122.66 278.60 125.56 278.27 128.37 277.48 C 128.80 277.37 129.67 277.14 130.10 277.03 C 130.58 279.89 130.99 282.76 131.59 285.59 C 130.77 283.96 130.49 281.75 128.83 280.76 C 124.23 280.12 119.64 281.27 115.05 281.57 C 103.60 282.05 92.12 281.96 80.69 282.78 C 77.88 282.87 76.05 285.07 74.36 287.01 L 73.74 286.58 C 74.34 285.23 74.97 283.90 75.60 282.57 C 77.66 281.98 79.71 281.38 81.77 280.77 C 80.90 280.02 80.04 279.27 79.16 278.55 C 83.87 279.48 88.80 280.34 93.48 278.78 C 93.58 277.13 93.70 275.49 93.77 273.84 Z" />
<path fill="#a4744e" stroke="#a4744e" stroke-width="0.09375" opacity="1.00" d=" M 40.99 285.17 C 42.23 282.32 44.75 279.66 48.05 279.56 C 55.26 279.03 62.62 280.64 69.10 283.80 C 67.21 283.71 64.76 282.62 63.26 284.26 C 59.13 289.04 61.01 297.83 67.34 299.67 C 70.98 301.19 74.66 299.42 77.91 297.82 C 79.99 296.71 82.33 297.52 84.54 297.48 C 85.11 298.44 85.67 299.40 86.22 300.37 C 86.11 300.95 85.89 302.12 85.78 302.71 C 83.80 304.22 81.81 305.73 79.82 307.23 C 77.18 305.01 73.73 305.09 70.57 305.89 C 67.31 304.60 64.21 302.91 60.84 301.90 C 58.59 301.42 56.31 301.18 54.03 300.92 C 52.86 297.07 51.34 293.11 51.86 289.02 C 52.25 286.00 53.06 283.06 53.72 280.10 C 51.52 280.37 49.32 280.69 47.12 281.00 C 48.62 287.24 48.89 293.67 47.57 299.97 C 46.84 299.81 46.10 299.66 45.36 299.50 C 41.88 295.61 39.30 290.48 40.99 285.17 Z" />
<path fill="#7c3804" stroke="#7c3804" stroke-width="0.09375" opacity="1.00" d=" M 132.03 286.81 C 139.63 280.91 149.40 277.38 159.08 278.50 C 165.28 278.79 167.20 285.91 166.15 291.03 C 163.80 293.96 161.26 296.78 158.07 298.81 C 151.37 299.64 144.87 301.31 138.63 303.85 C 134.37 302.89 130.20 304.58 127.42 307.87 C 125.57 305.76 123.57 303.77 121.33 302.07 C 121.54 300.85 121.77 299.63 122.08 298.44 C 122.75 297.02 123.50 295.64 124.29 294.30 C 126.32 291.29 129.18 288.99 132.03 286.81 Z" />
<path fill="#75390f" stroke="#75390f" stroke-width="0.09375" opacity="1.00" d=" M 47.12 281.00 C 49.32 280.69 51.52 280.37 53.72 280.10 C 53.06 283.06 52.25 286.00 51.86 289.02 C 51.34 293.11 52.86 297.07 54.03 300.92 C 51.87 300.66 49.71 300.38 47.57 299.97 C 48.89 293.67 48.62 287.24 47.12 281.00 Z" />
<path fill="#3b9683" stroke="#3b9683" stroke-width="0.09375" opacity="1.00" d=" M 115.05 281.57 C 119.64 281.27 124.23 280.12 128.83 280.76 C 130.49 281.75 130.77 283.96 131.59 285.59 C 131.70 285.90 131.92 286.51 132.03 286.81 C 129.18 288.99 126.32 291.29 124.29 294.30 C 120.63 293.07 116.73 293.40 112.93 293.46 C 111.64 292.08 110.17 290.78 109.33 289.05 C 110.78 286.24 113.05 283.98 115.05 281.57 Z" />
<path fill="#74b7a7" stroke="#74b7a7" stroke-width="0.09375" opacity="1.00" d=" M 80.69 282.78 C 92.12 281.96 103.60 282.05 115.05 281.57 C 113.05 283.98 110.78 286.24 109.33 289.05 C 110.17 290.78 111.64 292.08 112.93 293.46 C 105.65 293.66 98.43 292.50 91.16 292.38 C 91.11 289.24 90.99 286.11 90.84 282.98 C 87.46 282.79 84.07 282.60 80.69 282.78 Z" />
<path fill="#f7bc83" stroke="#f7bc83" stroke-width="0.09375" opacity="1.00" d=" M 21.74 284.75 C 22.62 283.15 24.55 283.59 26.02 283.76 C 28.05 285.22 30.18 286.55 32.30 287.89 C 33.74 289.03 35.21 290.14 36.62 291.33 C 37.53 292.99 39.29 294.99 37.91 296.89 C 35.78 300.64 30.79 300.84 27.01 300.22 C 20.21 299.17 18.35 289.85 21.74 284.75 Z" />
<path fill="#793906" stroke="#793906" stroke-width="0.09375" opacity="1.00" d=" M 63.26 284.26 C 64.76 282.62 67.21 283.71 69.10 283.80 C 70.70 284.62 72.24 285.58 73.74 286.58 L 74.36 287.01 C 77.04 288.84 79.81 290.65 81.89 293.19 C 82.81 294.60 83.68 296.04 84.54 297.48 C 82.33 297.52 79.99 296.71 77.91 297.82 C 74.66 299.42 70.98 301.19 67.34 299.67 C 61.01 297.83 59.13 289.04 63.26 284.26 Z" />
<path fill="#3f947e" stroke="#3f947e" stroke-width="0.09375" opacity="1.00" d=" M 74.36 287.01 C 76.05 285.07 77.88 282.87 80.69 282.78 C 84.07 282.60 87.46 282.79 90.84 282.98 C 90.99 286.11 91.11 289.24 91.16 292.38 C 88.05 292.33 84.93 292.46 81.89 293.19 C 79.81 290.65 77.04 288.84 74.36 287.01 Z" />
<path fill="#f2f5cf" stroke="#f2f5cf" stroke-width="0.09375" opacity="1.00" d=" M 81.89 293.19 C 84.93 292.46 88.05 292.33 91.16 292.38 C 98.43 292.50 105.65 293.66 112.93 293.46 C 116.73 293.40 120.63 293.07 124.29 294.30 C 123.50 295.64 122.75 297.02 122.08 298.44 C 117.19 299.77 112.11 299.89 107.08 300.07 C 104.68 300.25 102.27 300.48 99.87 300.75 C 98.44 300.91 97.02 301.06 95.59 301.19 C 92.44 301.36 89.30 300.97 86.22 300.37 C 85.67 299.40 85.11 298.44 84.54 297.48 C 83.68 296.04 82.81 294.60 81.89 293.19 Z" />
<path fill="#9fb78b" stroke="#9fb78b" stroke-width="0.09375" opacity="1.00" d=" M 107.08 300.07 C 112.11 299.89 117.19 299.77 122.08 298.44 C 121.77 299.63 121.54 300.85 121.33 302.07 C 118.87 304.11 115.60 304.21 112.64 304.98 L 112.20 304.53 C 110.69 302.84 108.99 301.31 107.08 300.07 Z" />
<path fill="#f8bb83" stroke="#f8bb83" stroke-width="0.09375" opacity="1.00" d=" M 45.36 299.50 C 46.10 299.66 46.84 299.81 47.57 299.97 C 49.71 300.38 51.87 300.66 54.03 300.92 C 56.31 301.18 58.59 301.42 60.84 301.90 C 58.14 301.67 55.44 301.91 52.76 302.20 C 56.20 305.50 60.13 308.22 63.98 311.01 C 65.63 312.33 67.75 312.68 69.77 313.05 C 70.20 310.68 70.49 308.29 70.57 305.89 C 73.73 305.09 77.18 305.01 79.82 307.23 C 82.31 309.81 85.02 312.21 88.27 313.81 C 88.79 312.89 89.32 311.97 89.85 311.07 C 89.95 312.35 90.07 313.64 90.22 314.93 C 90.39 315.32 90.73 316.10 90.90 316.49 C 92.33 318.92 93.94 321.24 95.47 323.61 C 93.26 326.81 89.44 325.74 86.19 325.31 C 88.14 327.57 90.06 329.87 91.98 332.18 C 92.00 333.35 92.01 334.53 92.01 335.71 C 91.77 336.01 91.31 336.61 91.08 336.91 C 87.92 335.84 84.63 335.23 81.31 334.99 C 82.96 336.34 84.63 337.67 86.32 338.99 C 85.03 339.82 83.74 340.64 82.51 341.55 C 80.59 340.59 78.66 339.67 76.72 338.74 C 77.45 341.41 78.51 344.24 77.31 346.96 C 74.32 345.18 71.87 342.27 68.30 341.68 C 66.36 340.20 65.13 338.07 64.45 335.76 C 65.48 335.26 66.51 334.77 67.54 334.28 C 66.77 332.98 66.07 331.62 65.09 330.46 C 63.84 330.12 62.53 330.11 61.24 330.02 C 60.18 328.20 59.09 326.41 58.07 324.58 C 57.53 325.40 56.44 325.55 55.91 326.39 C 55.69 325.41 55.46 324.43 55.23 323.46 C 53.69 323.74 52.14 324.02 50.60 324.31 C 43.60 320.04 37.30 314.79 30.50 310.23 C 36.08 307.65 42.02 304.97 45.36 299.50 Z" />
<path fill="#dacb71" stroke="#dacb71" stroke-width="0.09375" opacity="1.00" d=" M 86.22 300.37 C 89.30 300.97 92.44 301.36 95.59 301.19 C 95.48 303.59 95.52 306.00 95.78 308.40 C 94.49 308.09 93.20 307.80 91.90 307.53 C 91.59 306.70 91.30 305.88 91.01 305.06 C 90.80 304.44 90.39 303.20 90.18 302.58 C 88.97 302.64 87.76 302.71 86.55 302.76 L 85.78 302.71 C 85.89 302.12 86.11 300.95 86.22 300.37 Z" />
<path fill="#3f9581" stroke="#3f9581" stroke-width="0.09375" opacity="1.00" d=" M 99.87 300.75 C 102.27 300.48 104.68 300.25 107.08 300.07 C 108.99 301.31 110.69 302.84 112.20 304.53 C 111.80 306.44 111.39 308.35 110.97 310.26 C 105.98 310.20 100.99 310.24 96.01 310.41 L 95.91 309.43 C 97.13 308.70 98.38 308.03 99.63 307.36 C 99.72 305.15 99.82 302.95 99.87 300.75 Z" />
<path fill="#7ab5a0" stroke="#7ab5a0" stroke-width="0.09375" opacity="1.00" d=" M 95.59 301.19 C 97.02 301.06 98.44 300.91 99.87 300.75 C 99.82 302.95 99.72 305.15 99.63 307.36 C 98.38 308.03 97.13 308.70 95.91 309.43 L 95.78 308.40 C 95.52 306.00 95.48 303.59 95.59 301.19 Z" />
<path fill="#796546" stroke="#796546" stroke-width="0.09375" opacity="1.00" d=" M 86.55 302.76 C 87.76 302.71 88.97 302.64 90.18 302.58 C 90.39 303.20 90.80 304.44 91.01 305.06 C 89.52 304.29 88.05 303.50 86.55 302.76 Z" />
<path fill="#f1c55d" stroke="#f1c55d" stroke-width="0.09375" opacity="1.00" d=" M 121.33 302.07 C 123.57 303.77 125.57 305.76 127.42 307.87 C 125.57 310.59 123.24 312.93 120.39 314.60 C 121.24 312.66 122.03 310.70 122.84 308.75 C 119.33 307.94 115.06 308.11 112.64 304.98 C 115.60 304.21 118.87 304.11 121.33 302.07 Z" />
<path fill="#eaad21" stroke="#eaad21" stroke-width="0.09375" opacity="1.00" d=" M 79.82 307.23 C 81.81 305.73 83.80 304.22 85.78 302.71 L 86.55 302.76 C 88.05 303.50 89.52 304.29 91.01 305.06 C 91.30 305.88 91.59 306.70 91.90 307.53 C 91.22 308.71 90.53 309.88 89.85 311.07 C 89.32 311.97 88.79 312.89 88.27 313.81 C 85.02 312.21 82.31 309.81 79.82 307.23 Z" />
<path fill="#e9ab2a" stroke="#e9ab2a" stroke-width="0.09375" opacity="1.00" d=" M 112.20 304.53 L 112.64 304.98 C 115.06 308.11 119.33 307.94 122.84 308.75 C 122.03 310.70 121.24 312.66 120.39 314.60 C 119.25 315.68 118.13 316.77 117.03 317.89 C 117.37 316.80 117.70 315.70 118.00 314.59 C 116.40 314.68 114.79 314.78 113.19 314.87 C 113.23 317.02 113.27 319.17 113.32 321.32 C 113.07 325.64 114.93 333.04 108.85 333.85 C 108.01 333.63 107.18 333.42 106.35 333.20 C 103.68 332.45 101.12 331.38 98.63 330.15 C 98.89 324.96 98.61 319.76 98.49 314.57 C 104.71 311.79 111.35 313.65 117.81 314.13 C 117.80 312.90 117.80 311.69 117.79 310.47 C 115.51 310.40 113.24 310.31 110.97 310.26 C 111.39 308.35 111.80 306.44 112.20 304.53 M 100.37 319.60 C 101.97 323.09 105.94 324.61 108.84 326.88 C 110.43 323.43 113.76 318.31 109.79 315.26 C 106.64 312.51 98.36 314.35 100.37 319.60 Z" />
<path fill="#ada44a" stroke="#ada44a" stroke-width="0.09375" opacity="1.00" d=" M 89.85 311.07 C 90.53 309.88 91.22 308.71 91.90 307.53 C 93.20 307.80 94.49 308.09 95.78 308.40 L 95.91 309.43 L 96.01 310.41 C 93.95 310.54 91.90 310.80 89.85 311.07 Z" />
<path fill="#f3f2b4" stroke="#f3f2b4" stroke-width="0.09375" opacity="1.00" d=" M 89.85 311.07 C 91.90 310.80 93.95 310.54 96.01 310.41 C 100.99 310.24 105.98 310.20 110.97 310.26 C 113.24 310.31 115.51 310.40 117.79 310.47 C 117.80 311.69 117.80 312.90 117.81 314.13 C 111.35 313.65 104.71 311.79 98.49 314.57 C 95.76 315.01 92.98 314.97 90.22 314.93 C 90.07 313.64 89.95 312.35 89.85 311.07 Z" />
<path fill="#f8ad08" stroke="#f8ad08" stroke-width="0.09375" opacity="1.00" d=" M 100.37 319.60 C 98.36 314.35 106.64 312.51 109.79 315.26 C 113.76 318.31 110.43 323.43 108.84 326.88 C 105.94 324.61 101.97 323.09 100.37 319.60 Z" />
<path fill="#f7d6b5" stroke="#f7d6b5" stroke-width="0.09375" opacity="1.00" d=" M 145.91 329.91 C 152.71 322.43 161.72 317.48 171.13 314.05 C 166.17 318.73 159.98 321.67 154.29 325.31 C 151.58 326.99 148.78 328.52 145.91 329.91 Z" />
<path fill="#796546" stroke="#796546" stroke-width="0.09375" opacity="1.00" d=" M 90.22 314.93 C 92.98 314.97 95.76 315.01 98.49 314.57 C 98.61 319.76 98.89 324.96 98.63 330.15 C 98.02 331.57 97.32 332.96 96.63 334.35 C 95.78 333.98 94.93 333.59 94.09 333.20 C 94.35 331.17 94.59 329.15 94.83 327.13 C 94.17 327.11 92.84 327.09 92.17 327.07 C 92.10 328.77 92.04 330.47 91.98 332.18 C 90.06 329.87 88.14 327.57 86.19 325.31 C 89.44 325.74 93.26 326.81 95.47 323.61 C 96.33 323.57 97.18 323.53 98.04 323.50 C 98.20 320.88 98.26 318.25 98.26 315.63 C 95.80 315.81 93.33 316.08 90.90 316.49 C 90.73 316.10 90.39 315.32 90.22 314.93 Z" />
<path fill="#4c300a" stroke="#4c300a" stroke-width="0.09375" opacity="1.00" d=" M 113.19 314.87 C 114.79 314.78 116.40 314.68 118.00 314.59 C 117.70 315.70 117.37 316.80 117.03 317.89 C 116.37 318.57 115.69 319.24 115.00 319.88 C 114.58 320.24 113.74 320.96 113.32 321.32 C 113.27 319.17 113.23 317.02 113.19 314.87 Z" />
<path fill="#422e13" stroke="#422e13" stroke-width="0.09375" opacity="1.00" d=" M 90.90 316.49 C 93.33 316.08 95.80 315.81 98.26 315.63 C 98.26 318.25 98.20 320.88 98.04 323.50 C 97.18 323.53 96.33 323.57 95.47 323.61 C 93.94 321.24 92.33 318.92 90.90 316.49 Z" />
<path fill="#835627" stroke="#835627" stroke-width="0.09375" opacity="1.00" d=" M 113.32 321.32 C 113.74 320.96 114.58 320.24 115.00 319.88 C 114.85 321.52 114.67 323.15 114.54 324.79 C 114.46 326.04 114.40 327.28 114.33 328.54 C 115.86 328.84 117.39 329.15 118.93 329.46 C 117.94 331.23 117.56 333.24 117.50 335.25 C 114.51 335.77 111.56 335.15 108.85 333.85 C 114.93 333.04 113.07 325.64 113.32 321.32 Z" />
<path fill="#eac7a0" stroke="#eac7a0" stroke-width="0.09375" opacity="1.00" d=" M 50.60 324.31 C 52.14 324.02 53.69 323.74 55.23 323.46 C 55.46 324.43 55.69 325.41 55.91 326.39 C 56.44 325.55 57.53 325.40 58.07 324.58 C 59.09 326.41 60.18 328.20 61.24 330.02 C 62.53 330.11 63.84 330.12 65.09 330.46 C 66.07 331.62 66.77 332.98 67.54 334.28 C 66.51 334.77 65.48 335.26 64.45 335.76 C 65.13 338.07 66.36 340.20 68.30 341.68 C 68.08 343.16 67.84 344.65 67.58 346.14 C 65.15 341.83 63.62 337.06 61.08 332.82 C 58.07 329.46 54.13 327.08 50.60 324.31 Z" />
<path fill="#42301c" stroke="#42301c" stroke-width="0.09375" opacity="1.00" d=" M 114.54 324.79 C 117.02 324.60 119.50 324.36 121.97 324.12 C 120.95 325.90 119.90 327.66 118.93 329.46 C 117.39 329.15 115.86 328.84 114.33 328.54 C 114.40 327.28 114.46 326.04 114.54 324.79 Z" />
<path fill="#423216" stroke="#423216" stroke-width="0.09375" opacity="1.00" d=" M 92.17 327.07 C 92.84 327.09 94.17 327.11 94.83 327.13 C 94.59 329.15 94.35 331.17 94.09 333.20 C 93.56 332.94 92.50 332.43 91.98 332.18 C 92.04 330.47 92.10 328.77 92.17 327.07 Z" />
<path fill="#b98427" stroke="#b98427" stroke-width="0.09375" opacity="1.00" d=" M 98.63 330.15 C 101.12 331.38 103.68 332.45 106.35 333.20 C 103.58 335.62 99.90 336.14 96.63 334.35 C 97.32 332.96 98.02 331.57 98.63 330.15 Z" />
<path fill="#995702" stroke="#995702" stroke-width="0.09375" opacity="1.00" d=" M 91.98 332.18 C 92.50 332.43 93.56 332.94 94.09 333.20 C 94.93 333.59 95.78 333.98 96.63 334.35 C 99.90 336.14 103.58 335.62 106.35 333.20 C 107.18 333.42 108.01 333.63 108.85 333.85 C 111.56 335.15 114.51 335.77 117.50 335.25 C 118.59 336.22 119.68 337.21 120.71 338.26 C 120.47 349.56 123.14 360.75 122.39 372.07 C 122.58 378.47 113.42 379.43 113.53 385.88 C 113.15 380.43 114.30 374.75 112.47 369.49 C 109.54 366.66 105.00 367.50 101.40 368.30 C 99.91 378.13 100.74 388.10 100.61 398.00 C 100.42 410.42 102.03 422.83 101.18 435.25 C 100.73 433.67 100.31 432.08 99.90 430.49 C 98.33 432.37 96.89 434.54 94.59 435.59 C 87.03 438.77 78.86 441.90 70.52 440.44 C 65.91 435.72 61.85 429.03 54.54 428.52 C 49.55 423.30 51.96 415.46 54.28 409.55 C 58.87 388.45 63.37 367.32 67.58 346.14 C 67.84 344.65 68.08 343.16 68.30 341.68 C 71.87 342.27 74.32 345.18 77.31 346.96 C 78.51 344.24 77.45 341.41 76.72 338.74 C 78.66 339.67 80.59 340.59 82.51 341.55 C 82.48 342.05 82.44 343.05 82.41 343.56 C 81.92 353.36 80.90 363.14 79.88 372.90 C 79.78 379.20 71.56 380.22 70.48 385.98 C 79.76 386.63 89.14 385.54 98.24 383.70 C 95.76 380.51 92.30 378.29 89.66 375.27 C 87.00 371.44 87.58 366.46 87.87 362.06 C 88.84 354.50 88.34 346.87 88.84 339.28 C 89.61 338.51 90.36 337.72 91.08 336.91 C 91.31 336.61 91.77 336.01 92.01 335.71 C 92.01 334.53 92.00 333.35 91.98 332.18 Z" />
<path fill="#efad34" stroke="#efad34" stroke-width="0.09375" opacity="1.00" d=" M 117.50 335.25 C 119.29 335.02 121.08 334.80 122.88 334.58 C 124.09 336.42 125.35 338.22 126.40 340.16 C 126.73 343.15 126.70 346.15 126.96 349.15 C 125.48 345.22 123.78 341.22 120.71 338.26 C 119.68 337.21 118.59 336.22 117.50 335.25 Z" />
<path fill="#d4a753" stroke="#d4a753" stroke-width="0.09375" opacity="1.00" d=" M 81.31 334.99 C 84.63 335.23 87.92 335.84 91.08 336.91 C 90.36 337.72 89.61 338.51 88.84 339.28 C 86.95 341.06 84.75 342.45 82.41 343.56 C 82.44 343.05 82.48 342.05 82.51 341.55 C 83.74 340.64 85.03 339.82 86.32 338.99 C 84.63 337.67 82.96 336.34 81.31 334.99 Z" />
<path fill="#995702" stroke="#995702" stroke-width="0.09375" opacity="1.00" d=" M 126.40 340.16 C 128.43 339.13 130.45 338.10 132.45 337.04 C 132.09 339.60 131.78 342.17 131.60 344.76 C 135.12 343.68 137.91 341.11 141.37 339.90 C 142.31 342.86 143.27 345.82 144.04 348.84 C 149.58 372.05 153.33 395.64 158.30 418.97 C 158.75 421.93 158.51 424.94 158.35 427.92 C 155.62 431.64 151.84 434.34 148.74 437.70 C 147.17 442.59 148.06 447.85 146.79 452.81 C 147.60 447.76 147.37 442.64 147.15 437.56 C 141.06 440.62 134.02 440.70 127.54 438.87 C 123.71 436.33 119.40 434.16 116.46 430.54 C 115.44 425.42 116.74 420.19 116.79 415.04 C 117.01 405.58 117.12 396.00 115.01 386.72 C 115.03 386.29 115.07 385.44 115.09 385.01 C 123.67 385.61 132.29 385.94 140.90 385.52 C 140.74 384.53 140.58 383.55 140.43 382.58 C 136.93 379.85 131.48 378.17 130.80 373.16 C 129.45 365.16 129.21 356.99 126.96 349.15 C 126.70 346.15 126.73 343.15 126.40 340.16 Z" />
<path fill="#f9ab10" stroke="#f9ab10" stroke-width="0.09375" opacity="1.00" d=" M 82.41 343.56 C 84.75 342.45 86.95 341.06 88.84 339.28 C 88.34 346.87 88.84 354.50 87.87 362.06 C 87.58 366.46 87.00 371.44 89.66 375.27 C 92.30 378.29 95.76 380.51 98.24 383.70 C 89.14 385.54 79.76 386.63 70.48 385.98 C 71.56 380.22 79.78 379.20 79.88 372.90 C 80.90 363.14 81.92 353.36 82.41 343.56 Z" />
<path fill="#f9ab0f" stroke="#f9ab0f" stroke-width="0.09375" opacity="1.00" d=" M 120.71 338.26 C 123.78 341.22 125.48 345.22 126.96 349.15 C 129.21 356.99 129.45 365.16 130.80 373.16 C 131.48 378.17 136.93 379.85 140.43 382.58 C 140.58 383.55 140.74 384.53 140.90 385.52 C 132.29 385.94 123.67 385.61 115.09 385.01 C 115.07 385.44 115.03 386.29 115.01 386.72 C 113.90 400.75 115.49 414.90 114.27 428.91 C 114.34 414.57 115.25 400.15 113.53 385.88 C 113.42 379.43 122.58 378.47 122.39 372.07 C 123.14 360.75 120.47 349.56 120.71 338.26 Z" />
<path fill="#875f21" stroke="#875f21" stroke-width="0.09375" opacity="1.00" d=" M 115.01 386.72 C 117.12 396.00 117.01 405.58 116.79 415.04 C 116.74 420.19 115.44 425.42 116.46 430.54 C 119.40 434.16 123.71 436.33 127.54 438.87 C 127.10 440.47 126.69 442.07 126.31 443.69 L 126.11 444.52 C 125.89 442.50 125.67 440.49 125.43 438.48 C 123.23 438.00 121.02 437.55 118.84 437.00 C 116.86 436.00 114.52 435.07 113.58 432.87 C 113.76 431.54 113.99 430.22 114.27 428.91 C 115.49 414.90 113.90 400.75 115.01 386.72 Z" />
<path fill="#854b05" stroke="#854b05" stroke-width="0.09375" opacity="1.00" d=" M 54.54 428.52 C 61.85 429.03 65.91 435.72 70.52 440.44 C 78.86 441.90 87.03 438.77 94.59 435.59 C 96.89 434.54 98.33 432.37 99.90 430.49 C 100.31 432.08 100.73 433.67 101.18 435.25 C 97.36 438.50 92.37 439.57 87.49 439.87 C 87.46 444.32 87.44 448.82 86.35 453.18 C 85.32 453.51 84.28 453.85 83.25 454.18 C 77.84 454.22 72.39 453.51 67.22 451.89 C 66.87 451.63 66.18 451.09 65.84 450.83 C 65.12 446.44 65.27 441.95 64.28 437.61 C 61.10 434.51 57.30 432.06 54.54 428.52 Z" />
<path fill="#d9bb91" stroke="#d9bb91" stroke-width="0.09375" opacity="1.00" d=" M 118.84 437.00 C 121.02 437.55 123.23 438.00 125.43 438.48 C 125.67 440.49 125.89 442.50 126.11 444.52 C 125.44 440.64 122.22 438.41 118.84 437.00 Z" />
<path fill="#844b04" stroke="#844b04" stroke-width="0.09375" opacity="1.00" d=" M 127.54 438.87 C 134.02 440.70 141.06 440.62 147.15 437.56 C 147.37 442.64 147.60 447.76 146.79 452.81 C 146.68 453.40 146.46 454.59 146.35 455.18 L 145.21 455.12 C 139.95 454.83 134.68 454.55 129.41 454.39 C 128.08 450.92 126.88 447.38 126.31 443.69 C 126.69 442.07 127.10 440.47 127.54 438.87 Z" />
<path fill="#baa28a" stroke="#baa28a" stroke-width="0.09375" opacity="1.00" d=" M 126.11 444.52 L 126.31 443.69 C 126.88 447.38 128.08 450.92 129.41 454.39 C 130.15 465.99 130.98 477.63 130.80 489.26 C 129.04 480.76 129.80 472.04 128.58 463.48 C 129.07 456.99 126.06 450.95 126.11 444.52 Z" />
<path fill="#fbbc83" stroke="#fbbc83" stroke-width="0.09375" opacity="1.00" d=" M 67.22 451.89 C 72.39 453.51 77.84 454.22 83.25 454.18 C 83.88 465.14 85.30 476.04 85.95 487.00 C 87.34 499.98 88.70 512.95 89.47 525.98 C 89.64 529.54 90.18 533.07 90.91 536.56 C 89.00 538.75 86.96 540.82 84.90 542.88 C 81.37 536.35 76.68 530.31 70.19 526.52 C 71.20 521.74 71.27 516.85 71.12 512.00 C 70.98 493.97 71.48 475.92 71.09 457.90 C 71.34 455.15 69.24 453.32 67.22 451.89 Z" />
<path fill="#5f2d04" stroke="#5f2d04" stroke-width="0.09375" opacity="1.00" d=" M 129.41 454.39 C 134.68 454.55 139.95 454.83 145.21 455.12 C 143.84 468.36 144.62 481.69 144.00 494.97 C 143.26 501.66 144.01 508.52 142.12 515.06 C 140.52 519.49 143.28 523.90 142.72 528.42 C 142.04 536.69 141.99 545.00 142.50 553.29 C 142.46 556.01 142.40 558.73 142.33 561.46 C 140.12 561.48 137.91 561.48 135.70 561.47 C 135.47 559.99 135.22 558.52 135.01 557.05 C 133.13 534.48 132.17 511.87 130.80 489.26 C 130.98 477.63 130.15 465.99 129.41 454.39 Z" />
<path fill="#8d6a4f" stroke="#8d6a4f" stroke-width="0.09375" opacity="1.00" d=" M 145.21 455.12 L 146.35 455.18 C 145.36 465.53 145.79 475.97 145.23 486.35 C 144.58 496.56 145.06 506.80 144.17 516.99 C 143.23 529.07 144.08 541.25 142.50 553.29 C 141.99 545.00 142.04 536.69 142.72 528.42 C 143.28 523.90 140.52 519.49 142.12 515.06 C 144.01 508.52 143.26 501.66 144.00 494.97 C 144.62 481.69 143.84 468.36 145.21 455.12 Z" />
<path fill="#372e29" stroke="#372e29" stroke-width="0.09375" opacity="1.00" d=" M 64.68 525.37 C 66.52 525.72 68.37 526.07 70.19 526.52 C 76.68 530.31 81.37 536.35 84.90 542.88 C 86.96 540.82 89.00 538.75 90.91 536.56 C 92.66 536.07 94.43 535.62 96.21 535.25 C 96.30 539.47 93.59 543.52 94.97 547.71 C 96.35 552.43 97.27 557.35 96.55 562.27 C 86.70 562.47 76.85 562.53 66.99 562.64 C 61.32 562.67 55.65 564.01 49.99 563.04 C 45.98 562.37 42.70 559.80 39.66 557.28 C 36.64 554.68 33.69 551.83 31.87 548.24 C 30.76 546.04 30.74 542.51 33.53 541.61 C 40.42 540.03 46.85 543.94 52.86 546.73 C 53.37 547.01 54.38 547.58 54.89 547.86 L 55.47 548.30 C 57.70 549.98 59.68 551.99 62.10 553.42 C 66.76 553.09 71.22 550.00 73.47 545.93 C 73.53 541.37 69.46 538.47 66.42 535.72 C 65.62 534.80 64.88 533.84 64.16 532.87 C 63.28 530.35 63.54 527.75 64.68 525.37 Z" />
<path fill="#f8eac6" stroke="#f8eac6" stroke-width="0.09375" opacity="1.00" d=" M 64.16 532.87 C 64.88 533.84 65.62 534.80 66.42 535.72 C 66.08 536.36 65.42 537.65 65.08 538.29 C 63.95 539.87 62.90 541.51 62.03 543.25 L 61.02 543.28 C 60.86 541.76 60.26 541.59 59.21 542.78 C 58.44 543.81 57.66 544.83 56.87 545.86 C 56.38 546.36 55.39 547.36 54.89 547.86 C 54.38 547.58 53.37 547.01 52.86 546.73 C 55.24 542.92 58.77 540.06 63.09 538.74 C 63.48 536.79 63.94 534.84 64.16 532.87 Z" />
<path fill="#f0ae1b" stroke="#f0ae1b" stroke-width="0.09375" opacity="1.00" d=" M 66.42 535.72 C 69.46 538.47 73.53 541.37 73.47 545.93 C 71.22 550.00 66.76 553.09 62.10 553.42 C 59.68 551.99 57.70 549.98 55.47 548.30 C 56.72 547.99 57.19 547.17 56.87 545.86 C 57.66 544.83 58.44 543.81 59.21 542.78 C 59.66 542.90 60.57 543.15 61.02 543.28 L 62.03 543.25 L 62.78 543.25 C 63.14 544.37 63.49 545.50 63.84 546.64 C 64.90 546.44 65.95 546.22 67.00 545.99 C 66.25 544.85 65.51 543.71 64.70 542.63 C 65.34 541.26 65.04 539.73 65.08 538.29 C 65.42 537.65 66.08 536.36 66.42 535.72 Z" />
<path fill="#ecc97b" stroke="#ecc97b" stroke-width="0.09375" opacity="1.00" d=" M 62.03 543.25 C 62.90 541.51 63.95 539.87 65.08 538.29 C 65.04 539.73 65.34 541.26 64.70 542.63 C 64.22 542.78 63.26 543.09 62.78 543.25 L 62.03 543.25 Z" />
<path fill="#ebce81" stroke="#ebce81" stroke-width="0.09375" opacity="1.00" d=" M 59.21 542.78 C 60.26 541.59 60.86 541.76 61.02 543.28 C 60.57 543.15 59.66 542.90 59.21 542.78 Z" />
<path fill="#5f2d04" stroke="#5f2d04" stroke-width="0.09375" opacity="1.00" d=" M 62.78 543.25 C 63.26 543.09 64.22 542.78 64.70 542.63 C 65.51 543.71 66.25 544.85 67.00 545.99 C 65.95 546.22 64.90 546.44 63.84 546.64 C 63.49 545.50 63.14 544.37 62.78 543.25 Z" />
<path fill="#ecc88e" stroke="#ecc88e" stroke-width="0.09375" opacity="1.00" d=" M 54.89 547.86 C 55.39 547.36 56.38 546.36 56.87 545.86 C 57.19 547.17 56.72 547.99 55.47 548.30 L 54.89 547.86 Z" />
</svg>
