<?xml version="1.0" ?><svg fill="none" height="24" viewBox="0 0 24 24" width="24" xmlns="http://www.w3.org/2000/svg"><path clip-rule="evenodd" d="M12.3484 3.77492C12.1201 3.74169 11.8887 3.74169 11.6604 3.77492L11.5482 3.79125C10.0741 4.0058 8.86261 5.23377 8.62201 6.86628C8.381 8.5016 8.38082 10.1681 8.62181 11.8033C8.86243 13.436 10.0752 14.6618 11.5503 14.8734L11.6655 14.8899C11.8904 14.9221 12.1183 14.9221 12.3433 14.8899L12.4431 14.8756L12.5495 15.618L12.4431 14.8756C13.9262 14.6629 15.1449 13.4291 15.3844 11.7873C15.6214 10.1625 15.6212 8.50721 15.3842 6.88228C15.1447 5.24066 13.9274 4.00473 12.4452 3.789L12.3484 3.77492ZM11.4443 2.29056C11.8159 2.23648 12.1929 2.23648 12.5644 2.29056L12.6612 2.30464C14.852 2.6235 16.541 4.42095 16.8685 6.66576C17.1265 8.43416 17.1267 10.2354 16.8687 12.0039C16.541 14.2505 14.8486 16.046 12.656 16.3604L12.5562 16.3747L12.4498 15.6323L12.5562 16.3747C12.19 16.4272 11.8187 16.4272 11.4526 16.3747L11.3374 16.3582C9.15376 16.0451 7.46748 14.2587 7.13784 12.022C6.87546 10.2417 6.87567 8.4278 7.13804 6.64758C7.46741 4.41269 9.15041 2.62443 11.3322 2.30689L11.4443 2.29056ZM5 10.7031C5.41421 10.7031 5.75 11.0389 5.75 11.4531C5.75 15.1821 8.58929 18.1285 12 18.1285C15.4107 18.1285 18.25 15.1821 18.25 11.4531C18.25 11.0389 18.5858 10.7031 19 10.7031C19.4142 10.7031 19.75 11.0389 19.75 11.4531C19.75 15.6638 16.7114 19.1919 12.75 19.5909V21C12.75 21.4142 12.4142 21.75 12 21.75C11.5858 21.75 11.25 21.4142 11.25 21V19.5909C7.28864 19.1919 4.25 15.6638 4.25 11.4531C4.25 11.0389 4.58579 10.7031 5 10.7031Z" fill="white" fill-rule="evenodd"/></svg>