<?xml version="1.0" ?><svg fill="none" height="24" viewBox="0 0 24 24" width="24" xmlns="http://www.w3.org/2000/svg"><path clip-rule="evenodd" d="M16.6747 4.19024C13.5875 3.60325 10.4125 3.60325 7.32531 4.19024C5.83267 4.47405 4.64581 5.5476 4.24049 6.94822L4.19222 7.11502C3.60259 9.15256 3.60259 11.3084 4.19222 13.346L4.24049 13.5128C4.64581 14.9134 5.83267 15.9869 7.32531 16.2707C10.4125 16.8577 13.5875 16.8577 16.6747 16.2707C18.1673 15.9869 19.3542 14.9134 19.7595 13.5128L19.8078 13.346C20.3974 11.3084 20.3974 9.15256 19.8078 7.11503L19.7595 6.94822C19.3542 5.5476 18.1673 4.47405 16.6747 4.19024ZM7.04513 2.71664C10.3175 2.09445 13.6825 2.09445 16.9549 2.71664C18.985 3.10264 20.6331 4.57103 21.2004 6.53125L21.2487 6.69806C21.9171 9.00798 21.9171 11.453 21.2487 13.7629L21.2004 13.9297C20.6331 15.8899 18.985 17.3583 16.9549 17.7443C15.5652 18.0086 14.1589 18.1606 12.75 18.2004V20.25H14.6361C15.0504 20.25 15.3861 20.5858 15.3861 21C15.3861 21.4142 15.0504 21.75 14.6361 21.75H9.36386C8.94964 21.75 8.61386 21.4142 8.61386 21C8.61386 20.5858 8.94964 20.25 9.36386 20.25H11.25V18.2004C9.84112 18.1606 8.43476 18.0086 7.04513 17.7443C5.015 17.3583 3.36686 15.8899 2.79961 13.9297L2.75134 13.7629C2.08289 11.453 2.08289 9.00798 2.75134 6.69805L2.79961 6.53125C3.36686 4.57103 5.015 3.10264 7.04513 2.71664Z" fill="white" fill-rule="evenodd"/></svg>