<svg width="19" height="20" viewBox="0 0 19 20" fill="none" xmlns="http://www.w3.org/2000/svg">
<path d="M8.36135 19.6168C6.75802 19.6168 5.95635 19.2887 5.95635 18.6324V13.597H1.10935C0.838018 13.597 0.603685 13.3698 0.406352 12.9155C0.209018 12.4359 0.110352 11.7671 0.110352 10.9089C0.110352 10.0255 0.381685 9.14207 0.924352 8.25866C1.46702 7.35001 1.99735 6.89569 2.51535 6.89569H5.95635V2.65532C5.95635 2.17575 6.36335 1.77191 7.17735 1.44379C8.01602 1.11566 8.87935 0.951599 9.76735 0.951599C10.68 0.951599 11.3584 1.05256 11.8024 1.25448C12.271 1.45641 12.5054 1.69619 12.5054 1.97383V6.89569H17.3894C18.0307 6.89569 18.3514 7.716 18.3514 9.35662C18.3514 10.1895 18.0924 11.1108 17.5744 12.1204C17.0564 13.1048 16.563 13.597 16.0944 13.597H12.5054V18.0645C12.5054 18.4936 12.0367 18.8596 11.0994 19.1625C10.1867 19.4654 9.27402 19.6168 8.36135 19.6168Z" fill="white"/>
</svg>
