<svg width="20" height="22" viewBox="0 0 20 22" fill="none" xmlns="http://www.w3.org/2000/svg">
<path d="M9.50596 0.219604C10.835 0.219604 11.8721 0.403989 12.6171 0.772757C13.3823 1.12309 13.7544 4.30788 13.7544 5.24824C13.7544 6.9077 12.3448 7.73743 9.52565 7.73743C6.70647 7.73743 5.29688 6.9077 5.29688 5.24824C5.29688 3.58878 6.70691 0.219604 9.50596 0.219604Z" fill="white"/>
<path d="M4.35754 15.4331C4.35754 13.802 4.8405 12.5787 5.80641 11.7631C6.76069 10.9589 7.87062 10.5567 9.6977 10.5567C11.5132 10.5567 12.4223 10.9603 13.3999 11.7646C14.3774 12.5801 14.8662 13.8035 14.8662 15.4346C14.8662 15.4346 14.8662 16.1071 14.6946 16.665C14.523 17.2229 13.4668 18.7878 12.8151 19.0143C12.1518 19.2409 11.4302 19.5568 10.5574 19.5568C9.85914 19.5568 10.4332 21.3996 10.2238 21.1391C10.0725 20.9352 9.99683 20.7596 9.99683 20.6124L9.82435 19.5568L9.82347 19.208C9.82347 19.208 9.53299 19.1495 9.35448 19.0869C9.28115 19.0612 9.16911 19.0146 9.16911 19.0146L9.05623 19.0143L8.88374 19.0146L8.72024 19.1135C8.72024 19.1135 7.76451 18.9835 6.90333 18.9835C6.17017 18.9835 5.40729 18.1895 5.20945 17.929C5.0698 17.7251 4.53012 16.6099 4.53012 16.4627C4.35759 16.1951 4.35759 15.7253 4.35754 15.4331Z" fill="white"/>
<path d="M0.599959 14.4875C0.599959 12.8229 2.73202 10.4489 3.88809 9.61661C5.03024 8.79588 7.86398 8.67688 10.0508 8.67688C12.8155 8.67688 14.4614 8.80909 15.6347 9.61661C16.8047 10.4489 19.3936 12.6507 19.3936 14.3153L19.3945 17.0623C19.3945 17.3512 19.0045 17.6113 18.2245 17.8425C17.4306 18.0737 16.5113 18.1893 15.4667 18.1893C14.6309 18.1893 14.0877 18.0564 13.837 17.7905C13.6559 17.5824 13.5654 17.4033 13.5654 17.253L13.5654 14.4875C13.5654 13.1812 13.5097 12.3143 13.3983 11.8866C13.2729 11.4704 10.4408 11.5272 10.0508 11.5272C9.66077 11.5272 6.69373 11.7148 6.59623 12.1193C6.4848 12.5355 6.42909 15.4914 6.42909 16.8323L6.42909 17.0624C6.42909 17.3514 6.03909 17.6115 5.25909 17.8427C4.46516 18.0739 3.55283 18.1895 2.52211 18.1895C1.64461 18.1895 1.08746 18.0565 0.850674 17.7906C0.683531 17.5826 0.599958 17.4034 0.599959 17.2531L0.599959 14.4875Z" fill="white"/>
<path d="M19.3982 17.0243C19.3982 18.6889 18.8201 19.9373 17.6641 20.7696C16.5219 21.5903 12.1342 22.0002 9.9474 22.0002C7.77454 22.0002 3.52865 21.8404 2.35865 21.0197C1.18864 20.1874 0.603643 18.939 0.603643 17.2744L0.599609 17.0198C0.599609 16.7308 0.98961 16.4707 1.76961 16.2395C2.56354 16.0083 3.48283 15.8927 4.52748 15.8927C5.36319 15.8927 5.90641 16.0257 6.15712 16.2915C6.33819 16.4996 6.42873 16.6788 6.42873 16.829L6.42877 17.25C6.42877 17.25 6.48848 18.0605 6.59991 18.4882C6.72527 18.9043 9.5574 18.8476 9.9474 18.8476C10.3374 18.8476 13.3044 18.66 13.4019 18.2554C13.5134 17.8392 13.565 17.2498 13.565 17.2498L13.565 17.0196C13.565 16.7306 13.955 16.4706 14.735 16.2394C15.529 16.0082 16.4413 15.8926 17.472 15.8926C18.3495 15.8926 18.9067 16.0255 19.1435 16.2914C19.3106 16.4995 19.3942 16.6786 19.3942 16.8289L19.3982 17.0243Z" fill="white"/>
</svg>
