<svg width="28" height="28" viewBox="0 0 28 28" fill="none" xmlns="http://www.w3.org/2000/svg">
<path d="M18.7694 8.02271C19.9288 8.02271 20.8335 8.18355 21.4834 8.50524C22.1509 8.81085 22.4755 11.5891 22.4755 12.4094C22.4755 13.857 21.2459 14.5808 18.7866 14.5808C16.3273 14.5808 15.0977 13.857 15.0977 12.4094C15.0977 10.9618 16.3277 8.02271 18.7694 8.02271Z" fill="white"/>
<path d="M14.2782 21.2942C14.2782 19.8713 14.6995 18.8041 15.5421 18.0926C16.3745 17.3911 17.3428 17.0403 18.9366 17.0403C20.5203 17.0403 21.3134 17.3924 22.1662 18.0939C23.0189 18.8054 23.4453 19.8725 23.4453 21.2954C23.4453 21.2954 23.4453 21.8821 23.2956 22.3688C23.1459 22.8554 22.2246 24.2206 21.6561 24.4182C21.0774 24.6158 20.4479 24.8914 19.6866 24.8914C19.0774 24.8914 19.5783 26.499 19.3955 26.2717C19.2635 26.0938 19.1976 25.9407 19.1976 25.8122L19.0471 24.8914L19.0463 24.5872C19.0463 24.5872 18.7929 24.5361 18.6372 24.4815C18.5732 24.4591 18.4755 24.4184 18.4755 24.4184L18.377 24.4182L18.2266 24.4184L18.0839 24.5047C18.0839 24.5047 17.2502 24.3913 16.499 24.3913C15.8594 24.3913 15.1939 23.6987 15.0213 23.4714C14.8995 23.2936 14.4287 22.3207 14.4287 22.1923C14.2782 21.9589 14.2782 21.549 14.2782 21.2942Z" fill="white"/>
<path d="M11.0002 20.4692C11.0002 19.0172 12.8601 16.9462 13.8686 16.2202C14.865 15.5042 17.3369 15.4004 19.2446 15.4004C21.6564 15.4004 23.0921 15.5157 24.1157 16.2202C25.1363 16.9462 27.3947 18.8669 27.3947 20.319L27.3955 22.7153C27.3955 22.9674 27.0553 23.1943 26.3749 23.396C25.6823 23.5976 24.8804 23.6985 23.9691 23.6985C23.24 23.6985 22.7662 23.5825 22.5475 23.3506C22.3895 23.1691 22.3105 23.0128 22.3105 22.8817L22.3105 20.4692C22.3105 19.3297 22.2619 18.5734 22.1647 18.2003C22.0554 17.8373 19.5848 17.8868 19.2446 17.8868C18.9044 17.8868 16.3161 18.0505 16.231 18.4034C16.1338 18.7664 16.0852 21.3449 16.0852 22.5147L16.0852 22.7154C16.0852 22.9675 15.745 23.1944 15.0646 23.3961C14.372 23.5978 13.5762 23.6986 12.677 23.6986C11.9115 23.6986 11.4255 23.5826 11.219 23.3507C11.0731 23.1692 11.0002 23.0129 11.0002 22.8818L11.0002 20.4692Z" fill="white"/>
<path d="M27.3988 22.6822C27.3988 24.1343 26.8945 25.2233 25.886 25.9493C24.8897 26.6653 21.0621 27.0228 19.1545 27.0228C17.259 27.0228 13.5551 26.8835 12.5345 26.1675C11.5138 25.4415 11.0035 24.3525 11.0035 22.9004L11 22.6782C11 22.4261 11.3402 22.1993 12.0206 21.9976C12.7132 21.7959 13.5152 21.6951 14.4264 21.6951C15.1555 21.6951 15.6293 21.811 15.848 22.043C16.006 22.2245 16.085 22.3808 16.085 22.5119L16.085 22.8791C16.085 22.8791 16.1371 23.5861 16.2343 23.9592C16.3437 24.3222 18.8142 24.2727 19.1545 24.2727C19.4947 24.2727 22.0829 24.109 22.168 23.7561C22.2652 23.3931 22.3103 22.8789 22.3103 22.8789V22.6781C22.3103 22.426 22.6505 22.1991 23.3309 21.9975C24.0235 21.7958 24.8194 21.6949 25.7185 21.6949C26.484 21.6949 26.97 21.8109 27.1766 22.0428C27.3224 22.2243 27.3953 22.3806 27.3953 22.5117L27.3988 22.6822Z" fill="white"/>
<path d="M5.566 20.3407C4.61267 20.3407 4.136 20.15 4.136 19.7687V16.8427H1.254C1.09267 16.8427 0.953333 16.7107 0.836 16.4467C0.718667 16.168 0.66 15.7794 0.66 15.2807C0.66 14.7674 0.821333 14.254 1.144 13.7407C1.46667 13.2127 1.782 12.9487 2.09 12.9487H4.136V10.4847C4.136 10.206 4.378 9.97137 4.862 9.7807C5.36067 9.59004 5.874 9.4947 6.402 9.4947C6.94467 9.4947 7.348 9.55337 7.612 9.6707C7.89067 9.78804 8.03 9.92737 8.03 10.0887V12.9487H10.934C11.3153 12.9487 11.506 13.4254 11.506 14.3787C11.506 14.8627 11.352 15.398 11.044 15.9847C10.736 16.5567 10.4427 16.8427 10.164 16.8427H8.03V19.4387C8.03 19.688 7.75133 19.9007 7.194 20.0767C6.65133 20.2527 6.10867 20.3407 5.566 20.3407Z" fill="white"/>
</svg>
