<svg width="28" height="30" viewBox="0 0 28 30" fill="none" xmlns="http://www.w3.org/2000/svg">
<path d="M6.63033 6.77256C6.33703 7.06586 6.15696 7.27881 6.09011 7.4114C6.02984 7.55057 6.04244 7.66289 6.12791 7.74836L12.5699 14.1931C12.7145 14.3377 13.026 14.309 13.5043 14.1068C13.9892 13.9112 14.4428 13.6023 14.8651 13.1799C15.2406 12.8045 15.3982 12.4694 15.338 12.1745C15.3133 12.0677 15.2681 11.9814 15.2023 11.9157L10.5257 7.23631C11.2939 6.57326 15.1129 2.80687 15.4766 2.44318C15.5998 2.31999 15.4411 2.03815 15.0006 1.59764C14.5667 1.1637 14.1655 0.815341 13.7971 0.552546C13.4287 0.289751 13.2005 0.202347 13.1126 0.290337L6.63033 6.77256Z" fill="white"/>
<path d="M14.8687 6.05717C16.3537 6.18798 16.3578 6.0684 17.4842 6.49308C18.4129 6.84328 19.5596 7.68483 20.1442 8.23671C20.7142 8.77478 20.6756 8.76805 21.016 9.10852C21.3565 9.44898 21.0699 9.17575 21.3796 9.54443C21.7743 10.0144 22.1702 10.9397 22.3237 11.2881C22.6025 11.9204 22.9872 12.79 23.1232 13.4676C23.3917 14.8051 23.3122 16.0428 23.1232 16.8871C22.682 18.8475 22.5342 19.8494 20.6578 21.837C19.4023 23.1669 18.0871 24.1503 16.7121 24.787C15.3225 25.4099 14.0733 25.7231 12.9644 25.7265C11.8409 25.7162 10.7406 25.5204 9.66327 25.1391C7.91137 24.5355 6.41431 23.6474 5.17207 22.4746C3.3891 20.7914 3.0892 19.208 2.59057 18.1845C2.36399 17.7218 2.24294 17.2206 2.2274 16.6807C2.21186 16.1409 2.21392 15.6319 2.63557 15.2112C2.90504 14.9424 3.14356 14.8873 3.50738 14.7753C4.1582 14.5751 4.68193 14.4014 5.25101 14.7753C5.95992 15.2411 5.43236 16.1043 5.75928 16.8871C6.37195 18.3539 7.03386 19.484 8.30236 20.4421C10.0294 21.7465 11.4624 22.1383 13.6056 21.837C15.3578 21.5907 16.6756 20.855 17.8923 19.5703C19.4613 17.9135 20.0943 16.5044 19.6359 14.3394C19.166 12.1193 17.6347 10.2258 15.7041 9.76221C15.0566 9.60672 12.0191 9.10852 11.3498 9.54443C11.012 9.7644 10.6387 9.69619 10.4779 9.54442C10.0249 9.11672 9.50406 8.86837 10.042 7.8008C10.5654 6.71943 9.99506 7.00459 10.4779 6.49308C10.9608 5.98157 11.0938 6.06055 11.7051 6.05717C12.2879 6.05462 13.8513 5.96755 14.8687 6.05717Z" fill="white"/>
</svg>
