<svg width="36" height="35" viewBox="0 0 36 35" fill="none" xmlns="http://www.w3.org/2000/svg">
<path d="M18.7231 5.72939C20.3731 5.87474 20.3777 5.74187 21.6292 6.21375C22.6612 6.60287 23.9354 7.53795 24.5849 8.15116C25.2182 8.74904 25.1753 8.74156 25.5536 9.11986C25.9319 9.49817 25.6135 9.19457 25.9576 9.60422C26.3962 10.1264 26.8361 11.1546 27.0067 11.5416C27.3164 12.2443 27.7438 13.2105 27.895 13.9634C28.1933 15.4496 28.1049 16.8248 27.895 17.7629C27.4048 19.9413 27.2405 21.0545 25.1556 23.263C23.7606 24.7407 22.2992 25.8333 20.7714 26.5408C19.2273 27.2329 17.8393 27.5809 16.6072 27.5848C15.3588 27.5733 14.1361 27.3558 12.9391 26.9321C10.9925 26.2614 9.32908 25.2746 7.94878 23.9715C5.96765 22.1012 5.63442 20.3418 5.08037 19.2045C4.82861 18.6904 4.62871 15.1876 5.53965 12.8884C6.33881 10.8713 8.40455 8.91121 8.87307 8.44378C9.17249 8.14506 11.0953 9.55486 11.0953 9.55486C11.0953 9.55486 11.5768 11.3394 11.576 12.1153C10.0629 13.4577 10.0659 13.9897 9.9842 16.0108C9.88874 18.3737 10.9456 19.6208 12.3551 20.6854C14.274 22.1348 14.6482 22.5784 17.0296 22.2436C18.9766 21.9699 19.5732 22.1129 20.9251 20.6854C22.6685 18.8445 23.7717 17.6374 23.2624 15.2317C22.7402 12.7648 21.5122 11.0723 19.3669 10.5571C18.6475 10.3843 16.5324 10.1173 14.6924 10.5571C13.0993 10.9379 13.2448 10.6841 11.576 12.1153C11.1429 11.5564 9.9842 10.1104 9.9842 10.1104C9.9842 10.1104 8.33651 9.01214 8.87307 8.44378C9.40962 7.87543 13.0529 6.02656 15.2079 5.7294C16.5678 5.54186 17.5926 5.62981 18.7231 5.72939Z" fill="white"/>
<path d="M30.0886 34.1036L21.8158 25.8307C21.6927 25.7077 21.8926 25.3065 22.4153 24.6271C22.9389 23.9693 23.5168 23.3243 24.1489 22.6922C24.7707 22.0704 25.2028 21.6942 25.4453 21.5636C25.6886 21.4546 25.8829 21.4728 26.0284 21.6182L33.9991 29.589C34.2452 29.8351 34.1956 30.3658 33.8502 31.181C33.5056 32.0178 32.9862 32.7834 32.2918 33.4777C31.3488 34.4207 30.6144 34.6293 30.0886 34.1036Z" fill="white"/>
</svg>
