<svg width="20" height="18" viewBox="0 0 20 18" fill="none" xmlns="http://www.w3.org/2000/svg">
<path d="M1.91725 17.089C1.70125 17.089 1.44925 16.855 1.16125 16.387C0.855254 15.919 0.599306 15.2103 0.351254 14.416C0.181438 13.8722 0.00424901 13.5697 0.000253777 13C-0.00430083 12.3505 0.0490833 11.9184 0.432254 11.394C0.711077 11.0124 1.03525 10.674 1.37725 10.638L11.2053 9.69299L11.2053 9.31499L1.62025 8.47799C1.11625 8.42399 0.720254 7.81199 0.432254 6.64199C0.144254 5.47199 0.000253222 4.38299 0.000253178 3.37499C0.000253134 2.36699 0.090253 1.61999 0.270253 1.13399C0.432253 0.647989 0.603253 0.341989 0.783253 0.215988C0.963254 0.071989 1.13425 -1.14937e-05 1.29625 -1.15008e-05C1.44025 -1.1507e-05 1.86325 0.134989 2.56525 0.404989C3.24925 0.65699 3.98725 0.926988 4.77925 1.21499C7.29925 2.16899 11.8173 3.77999 18.3333 6.04799C18.8913 6.24599 19.1703 5.79399 19.1703 8.69199C19.1703 9.59199 19.1073 10.186 18.9813 10.474C18.8553 10.762 18.6393 10.96 18.3333 11.068C15.2733 12.13 11.7993 13.399 7.91125 14.875C4.02325 16.351 2.02525 17.089 1.91725 17.089Z" fill="white"/>
</svg>
