<?xml version="1.0" ?><svg fill="none" height="24" viewBox="0 0 24 24" width="24" xmlns="http://www.w3.org/2000/svg"><path clip-rule="evenodd" d="M5.61991 2.41472C5.96926 2.30564 6.33171 2.25 6.69661 2.25C8.45055 2.25 9.75001 3.79446 9.75 5.54107L9.75 9.45894C9.75001 11.2055 8.45055 12.75 6.69661 12.75C6.3317 12.75 5.96926 12.6944 5.61991 12.5853L5.35287 12.5019C5.29338 12.4833 5.23452 12.4634 5.17631 12.4422C5.74206 13.5409 6.44238 14.5589 7.25693 15.4744L6.13628 16.4714C4.35628 14.4708 3.07081 12.0256 2.45531 9.32467C2.42515 9.20635 2.39929 9.08632 2.37788 8.96484C2.20737 7.99719 2.20737 7.00281 2.37788 6.03516C2.67074 4.37321 3.79728 2.98384 5.35286 2.49811C5.35286 2.49811 5.35287 2.49811 5.35287 2.49811L5.61991 2.41472L5.61991 2.41472ZM3.91439 8.97635C3.89314 8.88264 3.87278 8.7886 3.85332 8.69423C3.71496 7.90204 3.71556 7.08747 3.85512 6.29547C4.06162 5.12362 4.8376 4.23042 5.79995 3.92993L5.79996 3.92993L6.06699 3.84654C6.067 3.84654 6.067 3.84654 6.067 3.84654C6.2728 3.78228 6.48455 3.75 6.69661 3.75C7.48693 3.75 8.25001 4.48089 8.25 5.54106L8.25 9.45894C8.25 10.5191 7.48693 11.25 6.69661 11.25C6.48455 11.25 6.27279 11.2177 6.06699 11.1535L5.79995 11.0701C4.91347 10.7933 4.18513 10.0135 3.91439 8.97635Z" fill="white" fill-rule="evenodd"/><path clip-rule="evenodd" d="M18.5303 4.46967C18.8232 4.76256 18.8232 5.23744 18.5303 5.53033L3.53033 20.5303C3.23744 20.8232 2.76256 20.8232 2.46967 20.5303C2.17678 20.2374 2.17678 19.7626 2.46967 19.4697L17.4697 4.46967C17.7626 4.17678 18.2374 4.17678 18.5303 4.46967Z" fill="white" fill-rule="evenodd"/><path clip-rule="evenodd" d="M14.5411 15.75C13.4809 15.75 12.75 16.5131 12.75 17.3034C12.75 17.5155 12.7823 17.7272 12.8465 17.933C12.8465 17.933 12.8465 17.933 12.8465 17.933L12.9299 18.2L12.9299 18.2C13.223 19.1386 14.0798 19.8999 15.2091 20.1285C15.2389 20.1343 15.2688 20.1399 15.2987 20.1454C16.0931 20.285 16.9102 20.2849 17.7045 20.1449C18.8764 19.9384 19.7696 19.1624 20.0701 18.2001L20.1535 17.933L20.8694 18.1565L20.1535 17.933C20.2177 17.7272 20.25 17.5155 20.25 17.3034C20.25 16.5131 19.5191 15.75 18.4589 15.75H14.5411ZM14.9214 21.6007C14.9592 21.6083 14.9971 21.6154 15.0352 21.6221C16.0028 21.7926 16.9972 21.7926 17.9648 21.6221C19.6268 21.3293 21.0162 20.2027 21.5019 18.6471L20.786 18.4236L21.5019 18.6471L21.5853 18.3801C21.6944 18.0307 21.75 17.6683 21.75 17.3034C21.75 15.5495 20.2055 14.25 18.4589 14.25H14.5411C12.7945 14.25 11.25 15.5494 11.25 17.3034C11.25 17.6683 11.3056 18.0307 11.4147 18.3801L11.4147 18.3801L11.4981 18.6471C11.4981 18.6471 11.4981 18.6471 11.4981 18.6471C11.5266 18.7383 11.5582 18.8281 11.5927 18.9162C10.8074 18.5295 10.0633 18.0732 9.36822 17.5552C9.0361 17.3077 8.56621 17.3762 8.31868 17.7084C8.07115 18.0405 8.13972 18.5104 8.47184 18.7579C10.342 20.1518 12.5341 21.1414 14.9214 21.6007Z" fill="white" fill-rule="evenodd"/></svg>