<svg width="29" height="15" viewBox="0 0 29 15" fill="none" xmlns="http://www.w3.org/2000/svg">
<path d="M17.3621 10.011C16.9563 9.60516 16.7298 7.8212 16.6373 7.63773C16.5539 7.44517 17.2439 5.40471 17.3622 5.28645L21.3677 2.49341C21.5679 2.29328 21.9988 2.33306 22.6606 2.61278C23.3315 2.88339 23.9591 3.31089 24.5435 3.89528C25.063 4.41473 25.2811 4.87844 25.1978 5.28639C25.1636 5.43418 25.1239 6.85815 25.1239 6.85815L25.1239 7.63773V10.011C25.1239 10.011 25.0748 10.5714 24.4653 11.1809C23.8649 11.7813 23.3098 12.2634 22.8001 12.627C22.2904 12.9906 21.9747 13.1115 21.8529 12.9898L17.3621 10.011Z" fill="white"/>
<path d="M4.50173e-07 5.29502C6.05028e-07 3.52368 0.615119 2.19518 1.84534 1.30951C3.06074 0.436147 7.72991 2.91686e-06 10.057 3.12029e-06C12.3692 3.32244e-06 14.8874 0.114192 16.1324 0.987558C17.3775 1.87323 18 3.20173 18 4.97306L18 9.18912C18 9.49664 17.585 9.77341 16.755 10.0194C15.9101 10.2654 16.1116 10.4444 15 10.4444C14.1107 10.4444 14.2668 9.72729 14 9.44437C13.8073 9.22295 14 7.10428 14 6.94437L14 5.94437C14 4.55436 13.3336 4.27798 13 3.94437C12.5 3.4444 10.472 3.35481 10.057 3.35481C9.64194 3.35481 6.48461 3.55444 6.38085 3.98497C6.26228 4.4278 6.203 7.57325 6.203 9.00015L6.203 9.24505C6.203 9.55258 5.78798 9.82935 4.95795 10.0754C4.1131 10.3214 3.14226 10.4444 2.04543 10.4444C1.11165 10.4444 0.518768 10.3029 0.266794 10.02C0.0889302 9.7986 -1.83422e-06 9.60793 -1.82024e-06 9.44802L4.50173e-07 5.29502Z" fill="white"/>
<path d="M18 9.20463C18 10.976 17.3849 12.3045 16.1547 13.1901C14.9393 14.0635 12.2744 14.4995 9.94733 14.4995C7.63511 14.4995 3.1169 14.3295 1.87186 13.4561C0.626813 12.5705 0.00429191 11.242 0.00429191 9.47062L0 9.19965C0 8.89212 0.415014 8.61535 1.24504 8.36933C2.08989 8.12331 3.06814 8.00031 4.17979 8.00031C5.06911 8.00031 5.64716 8.14177 5.91396 8.42469C6.10664 8.6461 6.20298 8.83677 6.20298 8.99668L6.20303 9.44468C6.20303 9.44468 6.26656 10.3071 6.38514 10.7622C6.51854 11.2051 9.53232 11.1447 9.94733 11.1447C10.3623 11.1447 10.8412 11.3074 12.1417 10.7624C12.5444 10.5936 13.2787 10.3792 13.4957 10.0003C13.6905 9.66029 13.8689 8.7322 13.8689 8.42467C13.8689 8.11715 14.4957 8.00033 14.4957 8.00033C14.4957 8.00033 14.8535 8.00033 15.9503 8.00033C16.8841 8.00033 17.477 8.14179 17.7289 8.42472C17.9068 8.64613 17.9957 8.8368 17.9957 8.99671L18 9.20463Z" fill="white"/>
</svg>
